M48
; DRILL file {KiCad 9.0.2} date 2025-06-10T20:07:47+0200
; FORMAT={-:-/ absolute / inch / decimal}
; #@! TF.CreationDate,2025-06-10T20:07:47+02:00
; #@! TF.GenerationSoftware,Kicad,Pcbnew,9.0.2
; #@! TF.FileFunction,Plated,1,2,PTH
FMAT,2
INCH
; #@! TA.AperFunction,Plated,PTH,ViaDrill
T1C0.0118
; #@! TA.AperFunction,Plated,PTH,ComponentDrill
T2C0.0374
; #@! TA.AperFunction,Plated,PTH,ComponentDrill
T3C0.0394
%
G90
G05
T1
X5.216Y-3.1
X5.35Y-2.935
X5.35Y-3.035
X5.354Y-3.542
X5.3868Y-4.4195
X5.3868Y-4.5745
X5.5818Y-4.6445
X5.586Y-4.068
X5.64Y-3.85
X5.64Y-3.89
X5.67Y-3.67
X5.6718Y-4.6445
X5.672Y-4.366
X5.677Y-3.574
X5.7Y-3.762
X5.72Y-3.58
X5.72Y-3.88
X5.72Y-3.92
X5.7318Y-4.3045
X5.7318Y-4.3395
X5.734Y-3.44
X5.752Y-3.955
X5.7528Y-4.3953
X5.76Y-3.58
X5.7668Y-4.3045
X5.7668Y-4.3395
X5.7718Y-4.7345
X5.776Y-4.478
X5.78Y-3.612
X5.796Y-4.536
X5.834Y-3.44
X5.854Y-4.56
X5.8568Y-4.3995
X5.8568Y-4.4395
X5.864Y-4.298
X5.884Y-3.44
X5.8968Y-4.3995
X5.8968Y-4.4395
X5.918Y-4.554
X5.92Y-3.38
X5.92Y-3.95
X5.9277Y-4.3196
X5.93Y-3.91
X5.94Y-3.42
X5.9468Y-4.2945
X5.96Y-3.95
X5.9618Y-2.4948
X5.9618Y-2.5348
X5.9618Y-2.5748
X5.97Y-3.38
X5.9818Y-4.2945
X5.9818Y-4.3345
X5.987Y-3.628
X5.988Y-4.398
X5.9996Y-3.6756
X6.0Y-3.95
X6.0118Y-2.4948
X6.0118Y-2.5348
X6.0118Y-2.5748
X6.0168Y-4.3345
X6.02Y-3.79
X6.02Y-3.83
X6.024Y-4.4146
X6.0241Y-4.4979
X6.06Y-3.79
X6.06Y-3.83
X6.0623Y-3.316
X6.0706Y-4.148
X6.114Y-3.748
X6.114Y-4.32
X6.13Y-3.51
X6.1318Y-4.7345
X6.15Y-3.47
X6.228Y-3.038
X6.23Y-3.61
X6.238Y-3.136
X6.25Y-3.696
X6.28Y-3.61
X6.32Y-3.61
T2
X5.215Y-3.4031
X5.215Y-3.5016
X5.215Y-3.6
T3
X5.214Y-4.244
X5.214Y-4.3424
X5.215Y-3.8679
X5.215Y-3.9664
X5.38Y-4.73
X5.405Y-3.74
X5.405Y-4.05
X5.56Y-4.73
X6.37Y-3.74
X6.37Y-4.05
M30
