%TF.GenerationSoftware,KiCad,Pcbnew,9.0.2*%
%TF.CreationDate,2025-06-10T20:07:43+02:00*%
%TF.ProjectId,PEH Sensor,50454820-5365-46e7-936f-722e6b696361,rev?*%
%TF.SameCoordinates,Original*%
%TF.FileFunction,Copper,L2,Bot*%
%TF.FilePolarity,Positive*%
%FSLAX46Y46*%
G04 Gerber Fmt 4.6, Leading zero omitted, Abs format (unit mm)*
G04 Created by KiCad (PCBNEW 9.0.2) date 2025-06-10 20:07:43*
%MOMM*%
%LPD*%
G01*
G04 APERTURE LIST*
G04 Aperture macros list*
%AMRoundRect*
0 Rectangle with rounded corners*
0 $1 Rounding radius*
0 $2 $3 $4 $5 $6 $7 $8 $9 X,Y pos of 4 corners*
0 Add a 4 corners polygon primitive as box body*
4,1,4,$2,$3,$4,$5,$6,$7,$8,$9,$2,$3,0*
0 Add four circle primitives for the rounded corners*
1,1,$1+$1,$2,$3*
1,1,$1+$1,$4,$5*
1,1,$1+$1,$6,$7*
1,1,$1+$1,$8,$9*
0 Add four rect primitives between the rounded corners*
20,1,$1+$1,$2,$3,$4,$5,0*
20,1,$1+$1,$4,$5,$6,$7,0*
20,1,$1+$1,$6,$7,$8,$9,0*
20,1,$1+$1,$8,$9,$2,$3,0*%
G04 Aperture macros list end*
%TA.AperFunction,ComponentPad*%
%ADD10C,2.000000*%
%TD*%
%TA.AperFunction,ComponentPad*%
%ADD11RoundRect,0.250000X-0.750000X0.600000X-0.750000X-0.600000X0.750000X-0.600000X0.750000X0.600000X0*%
%TD*%
%TA.AperFunction,ComponentPad*%
%ADD12O,2.000000X1.700000*%
%TD*%
%TA.AperFunction,ComponentPad*%
%ADD13RoundRect,0.250000X-0.725000X0.600000X-0.725000X-0.600000X0.725000X-0.600000X0.725000X0.600000X0*%
%TD*%
%TA.AperFunction,ComponentPad*%
%ADD14O,1.950000X1.700000*%
%TD*%
%TA.AperFunction,ViaPad*%
%ADD15C,0.600000*%
%TD*%
%TA.AperFunction,Conductor*%
%ADD16C,0.200000*%
%TD*%
G04 APERTURE END LIST*
D10*
%TO.P,TP1,1,1*%
%TO.N,Net-(D2-COM)*%
X136652000Y-120142000D03*
%TD*%
%TO.P,TP4,1,1*%
%TO.N,Net-(D1-K)*%
X137287000Y-102870000D03*
%TD*%
%TO.P,TP6,1,1*%
%TO.N,Net-(JP2-A)*%
X161798000Y-102870000D03*
%TD*%
D11*
%TO.P,BT1,1,+*%
%TO.N,/VPHE-*%
X132461000Y-98245500D03*
D12*
%TO.P,BT1,2,-*%
%TO.N,GND*%
X132461000Y-100745500D03*
%TD*%
D10*
%TO.P,TP2,1,1*%
%TO.N,Net-(D1-COM)*%
X141224000Y-120142000D03*
%TD*%
%TO.P,TP3,1,1*%
%TO.N,GND*%
X161798000Y-94996000D03*
%TD*%
%TO.P,TP5,1,1*%
%TO.N,/VPHE-*%
X137287000Y-94996000D03*
%TD*%
D11*
%TO.P,V1,1*%
%TO.N,Net-(D2-COM)*%
X132435600Y-107797600D03*
D12*
%TO.P,V1,2*%
%TO.N,Net-(D1-COM)*%
X132435600Y-110297600D03*
%TD*%
D13*
%TO.P,J1,1,Pin_1*%
%TO.N,/A_IN_SKU*%
X132461000Y-86439500D03*
D14*
%TO.P,J1,2,Pin_2*%
%TO.N,Net-(J1-Pin_2)*%
X132461000Y-88939500D03*
%TO.P,J1,3,Pin_3*%
%TO.N,GND*%
X132461000Y-91439500D03*
%TD*%
D15*
%TO.N,GND*%
X151430000Y-64384000D03*
X152700000Y-64384000D03*
X148761500Y-111747500D03*
X150622000Y-99314000D03*
X146602500Y-120256500D03*
X150368000Y-100330000D03*
X146475500Y-109334500D03*
X151936500Y-110096500D03*
X151430000Y-65400000D03*
X144018000Y-93218000D03*
X152400000Y-100330000D03*
X136823500Y-112255500D03*
X148761500Y-112763500D03*
X151047500Y-109080500D03*
X149777500Y-112763500D03*
X149777500Y-111747500D03*
X152700000Y-65400000D03*
X160528000Y-91694000D03*
X152069800Y-92151200D03*
X152908000Y-97282000D03*
X143256000Y-98806000D03*
X155702000Y-89154000D03*
X145586500Y-110223500D03*
X155746500Y-120256500D03*
X159512000Y-91694000D03*
X153924000Y-96266000D03*
X148183600Y-87376000D03*
X151430000Y-63368000D03*
X145586500Y-109334500D03*
X150876000Y-86868000D03*
X144062500Y-117970500D03*
X156210000Y-88138000D03*
X158242000Y-91694000D03*
X152908000Y-96266000D03*
X146475500Y-110223500D03*
X152389250Y-93359650D03*
X153924000Y-97282000D03*
X143256000Y-97790000D03*
X152825500Y-110096500D03*
X150368000Y-85852000D03*
X150317200Y-115671600D03*
X151638000Y-85852000D03*
X144780000Y-95554800D03*
X146304000Y-90932000D03*
X151384000Y-100330000D03*
X141776500Y-117970500D03*
X151936500Y-109080500D03*
X141884400Y-103327200D03*
X145288000Y-90932000D03*
X145288000Y-98552000D03*
X145288000Y-99568000D03*
X136823500Y-116192500D03*
X152700000Y-63368000D03*
%TO.N,+3V3*%
X132486400Y-78740000D03*
X135991600Y-89966800D03*
%TO.N,/SDA*%
X149453600Y-87376000D03*
X146812000Y-91744800D03*
X135890000Y-74549000D03*
%TO.N,/SCL*%
X135890000Y-77089000D03*
X144195800Y-90779600D03*
X145643600Y-87376000D03*
%TO.N,/VPHE+*%
X146100800Y-100457000D03*
X148945600Y-109169200D03*
%TO.N,Net-(D1-K)*%
X146119866Y-111641806D03*
X144068800Y-110895500D03*
%TO.N,/{slash}EN*%
X146710400Y-113741200D03*
X158445200Y-79654400D03*
%TO.N,/VBAT_OK*%
X153009600Y-112131500D03*
X158191200Y-77165200D03*
%TO.N,+5V*%
X158750000Y-93878400D03*
X155295600Y-95199200D03*
%TO.N,/VOUT_EN*%
X153981160Y-84226000D03*
X147218400Y-115214400D03*
%TO.N,Net-(JP2-A)*%
X152095200Y-111709200D03*
X155295600Y-109728000D03*
%TO.N,Net-(U2-LBUCK)*%
X150564720Y-109718409D03*
X154194000Y-105359200D03*
%TO.N,Net-(U2-VRDIV)*%
X153011300Y-114247500D03*
X148691600Y-115824000D03*
%TD*%
D16*
%TO.N,+3V3*%
X134670800Y-88646000D02*
X134670800Y-84531200D01*
X135991600Y-89966800D02*
X134670800Y-88646000D01*
X132486400Y-82346800D02*
X132486400Y-78740000D01*
X134670800Y-84531200D02*
X132486400Y-82346800D01*
%TO.N,/SDA*%
X149479000Y-80264000D02*
X143764000Y-74549000D01*
X146812000Y-91744800D02*
X149453600Y-89103200D01*
X149479000Y-87350600D02*
X149479000Y-80264000D01*
X149453600Y-89103200D02*
X149453600Y-87376000D01*
X143764000Y-74549000D02*
X135890000Y-74549000D01*
X149453600Y-87376000D02*
X149479000Y-87350600D01*
%TO.N,/SCL*%
X145669000Y-87350600D02*
X145669000Y-80772000D01*
X145643600Y-87376000D02*
X145669000Y-87350600D01*
X145592800Y-87426800D02*
X145643600Y-87376000D01*
X144195800Y-90779600D02*
X145592800Y-89382600D01*
X145669000Y-80772000D02*
X141986000Y-77089000D01*
X145592800Y-89382600D02*
X145592800Y-87426800D01*
X141986000Y-77089000D02*
X135890000Y-77089000D01*
%TO.N,/VPHE+*%
X146100800Y-100457000D02*
X146100800Y-103835200D01*
X149250400Y-106984800D02*
X149250400Y-108864400D01*
X146100800Y-103835200D02*
X149250400Y-106984800D01*
X149250400Y-108864400D02*
X148945600Y-109169200D01*
%TO.N,Net-(D1-K)*%
X146119866Y-111641806D02*
X145373560Y-110895500D01*
X145373560Y-110895500D02*
X144068800Y-110895500D01*
%TO.N,/{slash}EN*%
X139852400Y-110693200D02*
X139852400Y-103682800D01*
X144219000Y-99316200D02*
X144219000Y-97078800D01*
X142900400Y-113741200D02*
X139852400Y-110693200D01*
X158445200Y-82852600D02*
X158445200Y-79654400D01*
X139852400Y-103682800D02*
X144219000Y-99316200D01*
X144219000Y-97078800D02*
X158445200Y-82852600D01*
X146710400Y-113741200D02*
X142900400Y-113741200D01*
%TO.N,/VBAT_OK*%
X154694600Y-93421200D02*
X154686000Y-93412600D01*
X159816800Y-83058000D02*
X159816800Y-77774800D01*
X159816800Y-77774800D02*
X159207200Y-77165200D01*
X154686000Y-88188800D02*
X159816800Y-83058000D01*
X156768800Y-109778800D02*
X156768800Y-107084057D01*
X154416100Y-112131500D02*
X156768800Y-109778800D01*
X154694600Y-105009857D02*
X154694600Y-93421200D01*
X156768800Y-107084057D02*
X154694600Y-105009857D01*
X153009600Y-112131500D02*
X154416100Y-112131500D01*
X159207200Y-77165200D02*
X158191200Y-77165200D01*
X154686000Y-93412600D02*
X154686000Y-88188800D01*
%TO.N,+5V*%
X156616400Y-93878400D02*
X155295600Y-95199200D01*
X158750000Y-93878400D02*
X156616400Y-93878400D01*
%TO.N,/VOUT_EN*%
X153981160Y-85425583D02*
X153981160Y-84226000D01*
X138836400Y-102362000D02*
X142468600Y-98729800D01*
X142138400Y-115214400D02*
X138836400Y-111912400D01*
X147218400Y-115214400D02*
X142138400Y-115214400D01*
X142468600Y-98729800D02*
X142468600Y-96938144D01*
X138836400Y-111912400D02*
X138836400Y-102362000D01*
X142468600Y-96938144D02*
X153981160Y-85425583D01*
%TO.N,Net-(JP2-A)*%
X155295600Y-109728000D02*
X154076400Y-109728000D01*
X154076400Y-109728000D02*
X152095200Y-111709200D01*
%TO.N,Net-(U2-LBUCK)*%
X150341009Y-109718409D02*
X150266400Y-109643800D01*
X150266400Y-109011657D02*
X153918857Y-105359200D01*
X150266400Y-109643800D02*
X150266400Y-109011657D01*
X153918857Y-105359200D02*
X154194000Y-105359200D01*
X150564720Y-109718409D02*
X150341009Y-109718409D01*
%TO.N,Net-(U2-VRDIV)*%
X149140200Y-116272600D02*
X148691600Y-115824000D01*
X152857200Y-115265200D02*
X151849800Y-116272600D01*
X153011300Y-114247500D02*
X152857200Y-114401600D01*
X151849800Y-116272600D02*
X149140200Y-116272600D01*
X152857200Y-114401600D02*
X152857200Y-115265200D01*
%TD*%
%TA.AperFunction,Conductor*%
%TO.N,GND*%
G36*
X165623539Y-58698185D02*
G01*
X165669294Y-58750989D01*
X165680500Y-58802500D01*
X165680500Y-122553500D01*
X165660815Y-122620539D01*
X165608011Y-122666294D01*
X165556500Y-122677500D01*
X127305500Y-122677500D01*
X127238461Y-122657815D01*
X127192706Y-122605011D01*
X127181500Y-122553500D01*
X127181500Y-120047513D01*
X135451500Y-120047513D01*
X135451500Y-120236486D01*
X135481059Y-120423118D01*
X135539454Y-120602836D01*
X135625240Y-120771199D01*
X135736310Y-120924073D01*
X135869927Y-121057690D01*
X136022801Y-121168760D01*
X136102347Y-121209290D01*
X136191163Y-121254545D01*
X136191165Y-121254545D01*
X136191168Y-121254547D01*
X136287497Y-121285846D01*
X136370881Y-121312940D01*
X136557514Y-121342500D01*
X136557519Y-121342500D01*
X136746486Y-121342500D01*
X136933118Y-121312940D01*
X137112832Y-121254547D01*
X137281199Y-121168760D01*
X137434073Y-121057690D01*
X137567690Y-120924073D01*
X137678760Y-120771199D01*
X137764547Y-120602832D01*
X137822940Y-120423118D01*
X137852500Y-120236486D01*
X137852500Y-120047513D01*
X140023500Y-120047513D01*
X140023500Y-120236486D01*
X140053059Y-120423118D01*
X140111454Y-120602836D01*
X140197240Y-120771199D01*
X140308310Y-120924073D01*
X140441927Y-121057690D01*
X140594801Y-121168760D01*
X140674347Y-121209290D01*
X140763163Y-121254545D01*
X140763165Y-121254545D01*
X140763168Y-121254547D01*
X140859497Y-121285846D01*
X140942881Y-121312940D01*
X141129514Y-121342500D01*
X141129519Y-121342500D01*
X141318486Y-121342500D01*
X141505118Y-121312940D01*
X141684832Y-121254547D01*
X141853199Y-121168760D01*
X142006073Y-121057690D01*
X142139690Y-120924073D01*
X142250760Y-120771199D01*
X142336547Y-120602832D01*
X142394940Y-120423118D01*
X142424500Y-120236486D01*
X142424500Y-120047513D01*
X142394940Y-119860881D01*
X142367846Y-119777497D01*
X142336547Y-119681168D01*
X142336545Y-119681165D01*
X142336545Y-119681163D01*
X142250759Y-119512800D01*
X142139690Y-119359927D01*
X142006073Y-119226310D01*
X141853199Y-119115240D01*
X141684836Y-119029454D01*
X141505118Y-118971059D01*
X141318486Y-118941500D01*
X141318481Y-118941500D01*
X141129519Y-118941500D01*
X141129514Y-118941500D01*
X140942881Y-118971059D01*
X140763163Y-119029454D01*
X140594800Y-119115240D01*
X140507579Y-119178610D01*
X140441927Y-119226310D01*
X140441925Y-119226312D01*
X140441924Y-119226312D01*
X140308312Y-119359924D01*
X140308312Y-119359925D01*
X140308310Y-119359927D01*
X140260610Y-119425579D01*
X140197240Y-119512800D01*
X140111454Y-119681163D01*
X140053059Y-119860881D01*
X140023500Y-120047513D01*
X137852500Y-120047513D01*
X137822940Y-119860881D01*
X137795846Y-119777497D01*
X137764547Y-119681168D01*
X137764545Y-119681165D01*
X137764545Y-119681163D01*
X137678759Y-119512800D01*
X137567690Y-119359927D01*
X137434073Y-119226310D01*
X137281199Y-119115240D01*
X137112836Y-119029454D01*
X136933118Y-118971059D01*
X136746486Y-118941500D01*
X136746481Y-118941500D01*
X136557519Y-118941500D01*
X136557514Y-118941500D01*
X136370881Y-118971059D01*
X136191163Y-119029454D01*
X136022800Y-119115240D01*
X135935579Y-119178610D01*
X135869927Y-119226310D01*
X135869925Y-119226312D01*
X135869924Y-119226312D01*
X135736312Y-119359924D01*
X135736312Y-119359925D01*
X135736310Y-119359927D01*
X135688610Y-119425579D01*
X135625240Y-119512800D01*
X135539454Y-119681163D01*
X135481059Y-119860881D01*
X135451500Y-120047513D01*
X127181500Y-120047513D01*
X127181500Y-118056711D01*
X129830500Y-118056711D01*
X129830500Y-118299288D01*
X129862161Y-118539785D01*
X129924947Y-118774104D01*
X129994285Y-118941500D01*
X130017776Y-118998212D01*
X130139064Y-119208289D01*
X130139066Y-119208292D01*
X130139067Y-119208293D01*
X130286733Y-119400736D01*
X130286739Y-119400743D01*
X130458256Y-119572260D01*
X130458262Y-119572265D01*
X130650711Y-119719936D01*
X130860788Y-119841224D01*
X131084900Y-119934054D01*
X131319211Y-119996838D01*
X131499586Y-120020584D01*
X131559711Y-120028500D01*
X131559712Y-120028500D01*
X131802289Y-120028500D01*
X131850388Y-120022167D01*
X132042789Y-119996838D01*
X132277100Y-119934054D01*
X132291508Y-119928086D01*
X132291509Y-119928086D01*
X132354753Y-119901888D01*
X132501212Y-119841224D01*
X132711289Y-119719936D01*
X132903738Y-119572265D01*
X133075265Y-119400738D01*
X133222936Y-119208289D01*
X133344224Y-118998212D01*
X133437054Y-118774100D01*
X133499838Y-118539789D01*
X133531500Y-118299288D01*
X133531500Y-118056712D01*
X133531500Y-118056711D01*
X159349500Y-118056711D01*
X159349500Y-118299288D01*
X159381161Y-118539785D01*
X159443947Y-118774104D01*
X159513285Y-118941500D01*
X159536776Y-118998212D01*
X159658064Y-119208289D01*
X159658066Y-119208292D01*
X159658067Y-119208293D01*
X159805733Y-119400736D01*
X159805739Y-119400743D01*
X159977256Y-119572260D01*
X159977262Y-119572265D01*
X160169711Y-119719936D01*
X160379788Y-119841224D01*
X160603900Y-119934054D01*
X160838211Y-119996838D01*
X161018586Y-120020584D01*
X161078711Y-120028500D01*
X161078712Y-120028500D01*
X161321289Y-120028500D01*
X161369388Y-120022167D01*
X161561789Y-119996838D01*
X161796100Y-119934054D01*
X162020212Y-119841224D01*
X162230289Y-119719936D01*
X162422738Y-119572265D01*
X162594265Y-119400738D01*
X162741936Y-119208289D01*
X162863224Y-118998212D01*
X162956054Y-118774100D01*
X163018838Y-118539789D01*
X163050500Y-118299288D01*
X163050500Y-118056712D01*
X163018838Y-117816211D01*
X162956054Y-117581900D01*
X162863224Y-117357788D01*
X162741936Y-117147711D01*
X162594265Y-116955262D01*
X162594260Y-116955256D01*
X162422743Y-116783739D01*
X162422736Y-116783733D01*
X162230293Y-116636067D01*
X162230292Y-116636066D01*
X162230289Y-116636064D01*
X162020212Y-116514776D01*
X162016069Y-116513060D01*
X161796104Y-116421947D01*
X161561785Y-116359161D01*
X161321289Y-116327500D01*
X161321288Y-116327500D01*
X161078712Y-116327500D01*
X161078711Y-116327500D01*
X160838214Y-116359161D01*
X160603895Y-116421947D01*
X160379794Y-116514773D01*
X160379785Y-116514777D01*
X160169706Y-116636067D01*
X159977263Y-116783733D01*
X159977256Y-116783739D01*
X159805739Y-116955256D01*
X159805733Y-116955263D01*
X159658067Y-117147706D01*
X159536777Y-117357785D01*
X159536773Y-117357794D01*
X159443947Y-117581895D01*
X159381161Y-117816214D01*
X159349500Y-118056711D01*
X133531500Y-118056711D01*
X133499838Y-117816211D01*
X133437054Y-117581900D01*
X133344224Y-117357788D01*
X133222936Y-117147711D01*
X133075265Y-116955262D01*
X133075260Y-116955256D01*
X132903743Y-116783739D01*
X132903736Y-116783733D01*
X132711293Y-116636067D01*
X132711292Y-116636066D01*
X132711289Y-116636064D01*
X132501212Y-116514776D01*
X132497069Y-116513060D01*
X132277104Y-116421947D01*
X132042785Y-116359161D01*
X131802289Y-116327500D01*
X131802288Y-116327500D01*
X131559712Y-116327500D01*
X131559711Y-116327500D01*
X131319214Y-116359161D01*
X131084895Y-116421947D01*
X130860794Y-116514773D01*
X130860785Y-116514777D01*
X130650706Y-116636067D01*
X130458263Y-116783733D01*
X130458256Y-116783739D01*
X130286739Y-116955256D01*
X130286733Y-116955263D01*
X130139067Y-117147706D01*
X130017777Y-117357785D01*
X130017773Y-117357794D01*
X129924947Y-117581895D01*
X129862161Y-117816214D01*
X129830500Y-118056711D01*
X127181500Y-118056711D01*
X127181500Y-115758108D01*
X148191100Y-115758108D01*
X148191100Y-115889892D01*
X148193704Y-115899611D01*
X148225208Y-116017187D01*
X148258154Y-116074250D01*
X148291100Y-116131314D01*
X148384286Y-116224500D01*
X148498414Y-116290392D01*
X148625708Y-116324500D01*
X148625710Y-116324500D01*
X148715767Y-116324500D01*
X148782806Y-116344185D01*
X148803448Y-116360819D01*
X148899740Y-116457111D01*
X148955689Y-116513060D01*
X148955691Y-116513061D01*
X148955695Y-116513064D01*
X149024204Y-116552617D01*
X149024211Y-116552621D01*
X149100638Y-116573100D01*
X149100640Y-116573100D01*
X151889360Y-116573100D01*
X151889362Y-116573100D01*
X151965789Y-116552621D01*
X152034311Y-116513060D01*
X152090260Y-116457111D01*
X153097660Y-115449711D01*
X153137222Y-115381188D01*
X153157700Y-115304762D01*
X153157700Y-115225638D01*
X153157700Y-114812495D01*
X153177385Y-114745456D01*
X153219700Y-114705108D01*
X153318614Y-114648000D01*
X153411800Y-114554814D01*
X153477692Y-114440686D01*
X153511800Y-114313392D01*
X153511800Y-114181608D01*
X153477692Y-114054314D01*
X153411800Y-113940186D01*
X153318614Y-113847000D01*
X153261550Y-113814054D01*
X153204487Y-113781108D01*
X153140839Y-113764054D01*
X153077192Y-113747000D01*
X152945408Y-113747000D01*
X152818112Y-113781108D01*
X152703986Y-113847000D01*
X152703983Y-113847002D01*
X152610802Y-113940183D01*
X152610800Y-113940186D01*
X152544908Y-114054312D01*
X152510800Y-114181608D01*
X152510800Y-114313391D01*
X152544908Y-114440685D01*
X152547263Y-114446371D01*
X152556700Y-114493820D01*
X152556700Y-115089367D01*
X152537015Y-115156406D01*
X152520381Y-115177048D01*
X151761648Y-115935781D01*
X151700325Y-115969266D01*
X151673967Y-115972100D01*
X149316100Y-115972100D01*
X149249061Y-115952415D01*
X149203306Y-115899611D01*
X149192100Y-115848100D01*
X149192100Y-115758110D01*
X149192100Y-115758108D01*
X149157992Y-115630814D01*
X149092100Y-115516686D01*
X148998914Y-115423500D01*
X148941850Y-115390554D01*
X148884787Y-115357608D01*
X148821139Y-115340554D01*
X148757492Y-115323500D01*
X148625708Y-115323500D01*
X148498412Y-115357608D01*
X148384286Y-115423500D01*
X148384283Y-115423502D01*
X148291102Y-115516683D01*
X148291100Y-115516686D01*
X148225208Y-115630812D01*
X148202678Y-115714899D01*
X148191100Y-115758108D01*
X127181500Y-115758108D01*
X127181500Y-110194130D01*
X131235100Y-110194130D01*
X131235100Y-110401069D01*
X131275468Y-110604012D01*
X131275470Y-110604020D01*
X131280216Y-110615479D01*
X131354659Y-110795198D01*
X131377651Y-110829608D01*
X131469624Y-110967257D01*
X131615942Y-111113575D01*
X131615945Y-111113577D01*
X131788002Y-111228541D01*
X131979180Y-111307730D01*
X132113723Y-111334492D01*
X132182130Y-111348099D01*
X132182134Y-111348100D01*
X132182135Y-111348100D01*
X132689066Y-111348100D01*
X132689067Y-111348099D01*
X132892020Y-111307730D01*
X133083198Y-111228541D01*
X133255255Y-111113577D01*
X133401577Y-110967255D01*
X133516541Y-110795198D01*
X133595730Y-110604020D01*
X133636100Y-110401065D01*
X133636100Y-110194135D01*
X133595730Y-109991180D01*
X133516541Y-109800002D01*
X133401577Y-109627945D01*
X133401575Y-109627942D01*
X133255257Y-109481624D01*
X133119898Y-109391181D01*
X133083198Y-109366659D01*
X133072882Y-109362386D01*
X132892020Y-109287470D01*
X132892012Y-109287468D01*
X132689069Y-109247100D01*
X132689065Y-109247100D01*
X132182135Y-109247100D01*
X132182130Y-109247100D01*
X131979187Y-109287468D01*
X131979179Y-109287470D01*
X131788003Y-109366658D01*
X131615942Y-109481624D01*
X131469624Y-109627942D01*
X131354658Y-109800003D01*
X131275470Y-109991179D01*
X131275468Y-109991187D01*
X131235100Y-110194130D01*
X127181500Y-110194130D01*
X127181500Y-107143330D01*
X131235100Y-107143330D01*
X131235100Y-108451869D01*
X131237953Y-108482299D01*
X131237953Y-108482301D01*
X131282806Y-108610480D01*
X131282807Y-108610482D01*
X131363450Y-108719750D01*
X131472718Y-108800393D01*
X131515445Y-108815344D01*
X131600899Y-108845246D01*
X131631330Y-108848100D01*
X131631334Y-108848100D01*
X133239870Y-108848100D01*
X133270299Y-108845246D01*
X133270301Y-108845246D01*
X133334390Y-108822819D01*
X133398482Y-108800393D01*
X133507750Y-108719750D01*
X133588393Y-108610482D01*
X133610819Y-108546390D01*
X133633246Y-108482301D01*
X133633246Y-108482299D01*
X133636100Y-108451869D01*
X133636100Y-107143330D01*
X133633246Y-107112900D01*
X133633246Y-107112898D01*
X133588393Y-106984719D01*
X133588392Y-106984717D01*
X133507750Y-106875450D01*
X133398482Y-106794807D01*
X133398480Y-106794806D01*
X133270300Y-106749953D01*
X133239870Y-106747100D01*
X133239866Y-106747100D01*
X131631334Y-106747100D01*
X131631330Y-106747100D01*
X131600900Y-106749953D01*
X131600898Y-106749953D01*
X131472719Y-106794806D01*
X131472717Y-106794807D01*
X131363450Y-106875450D01*
X131282807Y-106984717D01*
X131282806Y-106984719D01*
X131237953Y-107112898D01*
X131237953Y-107112900D01*
X131235100Y-107143330D01*
X127181500Y-107143330D01*
X127181500Y-100495500D01*
X130983769Y-100495500D01*
X132027988Y-100495500D01*
X131995075Y-100552507D01*
X131961000Y-100679674D01*
X131961000Y-100811326D01*
X131995075Y-100938493D01*
X132027988Y-100995500D01*
X130983769Y-100995500D01*
X130994242Y-101061626D01*
X130994242Y-101061629D01*
X131059904Y-101263717D01*
X131156379Y-101453057D01*
X131281272Y-101624959D01*
X131281276Y-101624964D01*
X131431535Y-101775223D01*
X131431540Y-101775227D01*
X131603442Y-101900120D01*
X131792782Y-101996595D01*
X131994870Y-102062257D01*
X132204754Y-102095500D01*
X132211000Y-102095500D01*
X132211000Y-101178512D01*
X132268007Y-101211425D01*
X132395174Y-101245500D01*
X132526826Y-101245500D01*
X132653993Y-101211425D01*
X132711000Y-101178512D01*
X132711000Y-102095500D01*
X132717246Y-102095500D01*
X132927127Y-102062257D01*
X132927130Y-102062257D01*
X133129217Y-101996595D01*
X133318557Y-101900120D01*
X133490459Y-101775227D01*
X133490464Y-101775223D01*
X133640723Y-101624964D01*
X133640727Y-101624959D01*
X133765620Y-101453057D01*
X133862095Y-101263717D01*
X133927757Y-101061629D01*
X133927757Y-101061626D01*
X133938231Y-100995500D01*
X132894012Y-100995500D01*
X132926925Y-100938493D01*
X132961000Y-100811326D01*
X132961000Y-100679674D01*
X132926925Y-100552507D01*
X132894012Y-100495500D01*
X133938231Y-100495500D01*
X133927757Y-100429373D01*
X133927757Y-100429370D01*
X133862095Y-100227282D01*
X133765620Y-100037942D01*
X133640727Y-99866040D01*
X133640723Y-99866035D01*
X133490464Y-99715776D01*
X133490459Y-99715772D01*
X133318557Y-99590879D01*
X133200029Y-99530485D01*
X133149233Y-99482510D01*
X133132438Y-99414689D01*
X133154976Y-99348554D01*
X133209691Y-99305103D01*
X133256324Y-99296000D01*
X133265270Y-99296000D01*
X133295699Y-99293146D01*
X133295701Y-99293146D01*
X133359790Y-99270719D01*
X133423882Y-99248293D01*
X133533150Y-99167650D01*
X133613793Y-99058382D01*
X133636219Y-98994290D01*
X133658646Y-98930201D01*
X133658646Y-98930199D01*
X133661500Y-98899769D01*
X133661500Y-97591230D01*
X133658646Y-97560800D01*
X133658646Y-97560798D01*
X133613793Y-97432619D01*
X133613792Y-97432617D01*
X133533150Y-97323350D01*
X133423882Y-97242707D01*
X133423880Y-97242706D01*
X133295700Y-97197853D01*
X133265270Y-97195000D01*
X133265266Y-97195000D01*
X131656734Y-97195000D01*
X131656730Y-97195000D01*
X131626300Y-97197853D01*
X131626298Y-97197853D01*
X131498119Y-97242706D01*
X131498117Y-97242707D01*
X131388850Y-97323350D01*
X131308207Y-97432617D01*
X131308206Y-97432619D01*
X131263353Y-97560798D01*
X131263353Y-97560800D01*
X131260500Y-97591230D01*
X131260500Y-98899769D01*
X131263353Y-98930199D01*
X131263353Y-98930201D01*
X131308206Y-99058380D01*
X131308207Y-99058382D01*
X131388850Y-99167650D01*
X131498118Y-99248293D01*
X131540845Y-99263244D01*
X131626299Y-99293146D01*
X131656730Y-99296000D01*
X131665676Y-99296000D01*
X131732715Y-99315685D01*
X131778470Y-99368489D01*
X131788414Y-99437647D01*
X131759389Y-99501203D01*
X131721971Y-99530485D01*
X131603442Y-99590879D01*
X131431540Y-99715772D01*
X131431535Y-99715776D01*
X131281276Y-99866035D01*
X131281272Y-99866040D01*
X131156379Y-100037942D01*
X131059904Y-100227282D01*
X130994242Y-100429370D01*
X130994242Y-100429373D01*
X130983769Y-100495500D01*
X127181500Y-100495500D01*
X127181500Y-94901513D01*
X136086500Y-94901513D01*
X136086500Y-95090486D01*
X136116059Y-95277118D01*
X136174454Y-95456836D01*
X136249252Y-95603634D01*
X136260240Y-95625199D01*
X136371310Y-95778073D01*
X136504927Y-95911690D01*
X136657801Y-96022760D01*
X136737347Y-96063290D01*
X136826163Y-96108545D01*
X136826165Y-96108545D01*
X136826168Y-96108547D01*
X136922497Y-96139846D01*
X137005881Y-96166940D01*
X137192514Y-96196500D01*
X137192519Y-96196500D01*
X137381486Y-96196500D01*
X137568118Y-96166940D01*
X137747832Y-96108547D01*
X137916199Y-96022760D01*
X138069073Y-95911690D01*
X138202690Y-95778073D01*
X138313760Y-95625199D01*
X138399547Y-95456832D01*
X138457940Y-95277118D01*
X138459845Y-95265090D01*
X138487500Y-95090486D01*
X138487500Y-94901513D01*
X138457940Y-94714881D01*
X138399545Y-94535163D01*
X138354290Y-94446347D01*
X138313760Y-94366801D01*
X138202690Y-94213927D01*
X138069073Y-94080310D01*
X137916199Y-93969240D01*
X137867232Y-93944290D01*
X137747836Y-93883454D01*
X137568118Y-93825059D01*
X137381486Y-93795500D01*
X137381481Y-93795500D01*
X137192519Y-93795500D01*
X137192514Y-93795500D01*
X137005881Y-93825059D01*
X136826163Y-93883454D01*
X136657800Y-93969240D01*
X136570579Y-94032610D01*
X136504927Y-94080310D01*
X136504925Y-94080312D01*
X136504924Y-94080312D01*
X136371312Y-94213924D01*
X136371312Y-94213925D01*
X136371310Y-94213927D01*
X136324106Y-94278897D01*
X136260240Y-94366800D01*
X136174454Y-94535163D01*
X136116059Y-94714881D01*
X136086500Y-94901513D01*
X127181500Y-94901513D01*
X127181500Y-91189500D01*
X131008769Y-91189500D01*
X132056854Y-91189500D01*
X132018370Y-91256157D01*
X131986000Y-91376965D01*
X131986000Y-91502035D01*
X132018370Y-91622843D01*
X132056854Y-91689500D01*
X131008769Y-91689500D01*
X131019242Y-91755626D01*
X131019242Y-91755629D01*
X131084904Y-91957717D01*
X131181379Y-92147057D01*
X131306272Y-92318959D01*
X131306276Y-92318964D01*
X131456535Y-92469223D01*
X131456540Y-92469227D01*
X131628442Y-92594120D01*
X131817782Y-92690595D01*
X132019872Y-92756257D01*
X132211000Y-92786529D01*
X132211000Y-91843645D01*
X132277657Y-91882130D01*
X132398465Y-91914500D01*
X132523535Y-91914500D01*
X132644343Y-91882130D01*
X132711000Y-91843645D01*
X132711000Y-92786528D01*
X132902127Y-92756257D01*
X133104217Y-92690595D01*
X133293557Y-92594120D01*
X133465459Y-92469227D01*
X133465464Y-92469223D01*
X133615723Y-92318964D01*
X133615727Y-92318959D01*
X133740620Y-92147057D01*
X133837095Y-91957717D01*
X133902757Y-91755629D01*
X133902757Y-91755626D01*
X133913231Y-91689500D01*
X132865146Y-91689500D01*
X132903630Y-91622843D01*
X132936000Y-91502035D01*
X132936000Y-91376965D01*
X132903630Y-91256157D01*
X132865146Y-91189500D01*
X133913231Y-91189500D01*
X133902757Y-91123373D01*
X133902757Y-91123370D01*
X133837095Y-90921282D01*
X133740620Y-90731942D01*
X133615727Y-90560040D01*
X133615723Y-90560035D01*
X133465464Y-90409776D01*
X133465459Y-90409772D01*
X133293557Y-90284879D01*
X133104216Y-90188404D01*
X132982144Y-90148740D01*
X132924468Y-90109302D01*
X132897270Y-90044944D01*
X132909185Y-89976097D01*
X132956429Y-89924622D01*
X132973006Y-89916249D01*
X133083598Y-89870441D01*
X133255655Y-89755477D01*
X133401977Y-89609155D01*
X133516941Y-89437098D01*
X133596130Y-89245920D01*
X133636500Y-89042965D01*
X133636500Y-88836035D01*
X133596130Y-88633080D01*
X133516941Y-88441902D01*
X133401977Y-88269845D01*
X133401975Y-88269842D01*
X133255657Y-88123524D01*
X133169626Y-88066041D01*
X133083598Y-88008559D01*
X133073289Y-88004289D01*
X132892420Y-87929370D01*
X132892412Y-87929368D01*
X132689469Y-87889000D01*
X132689465Y-87889000D01*
X132232535Y-87889000D01*
X132232530Y-87889000D01*
X132029587Y-87929368D01*
X132029579Y-87929370D01*
X131838403Y-88008558D01*
X131666342Y-88123524D01*
X131520024Y-88269842D01*
X131405058Y-88441903D01*
X131325870Y-88633079D01*
X131325868Y-88633087D01*
X131285500Y-88836030D01*
X131285500Y-89042969D01*
X131325868Y-89245912D01*
X131325870Y-89245920D01*
X131343180Y-89287711D01*
X131405059Y-89437098D01*
X131446146Y-89498589D01*
X131520024Y-89609157D01*
X131666342Y-89755475D01*
X131666345Y-89755477D01*
X131838402Y-89870441D01*
X131948990Y-89916248D01*
X132003393Y-89960089D01*
X132025458Y-90026383D01*
X132008179Y-90094082D01*
X131957042Y-90141693D01*
X131939856Y-90148740D01*
X131817781Y-90188405D01*
X131628442Y-90284879D01*
X131456540Y-90409772D01*
X131456535Y-90409776D01*
X131306276Y-90560035D01*
X131306272Y-90560040D01*
X131181379Y-90731942D01*
X131084904Y-90921282D01*
X131019242Y-91123370D01*
X131019242Y-91123373D01*
X131008769Y-91189500D01*
X127181500Y-91189500D01*
X127181500Y-85785230D01*
X131285500Y-85785230D01*
X131285500Y-87093769D01*
X131288353Y-87124199D01*
X131288353Y-87124201D01*
X131330745Y-87245346D01*
X131333207Y-87252382D01*
X131413850Y-87361650D01*
X131523118Y-87442293D01*
X131565845Y-87457244D01*
X131651299Y-87487146D01*
X131681730Y-87490000D01*
X131681734Y-87490000D01*
X133240270Y-87490000D01*
X133270699Y-87487146D01*
X133270701Y-87487146D01*
X133334790Y-87464719D01*
X133398882Y-87442293D01*
X133508150Y-87361650D01*
X133588793Y-87252382D01*
X133619852Y-87163620D01*
X133633646Y-87124201D01*
X133633646Y-87124199D01*
X133636500Y-87093769D01*
X133636500Y-85785230D01*
X133633646Y-85754800D01*
X133633646Y-85754798D01*
X133588793Y-85626619D01*
X133588792Y-85626617D01*
X133508150Y-85517350D01*
X133398882Y-85436707D01*
X133398880Y-85436706D01*
X133270700Y-85391853D01*
X133240270Y-85389000D01*
X133240266Y-85389000D01*
X131681734Y-85389000D01*
X131681730Y-85389000D01*
X131651300Y-85391853D01*
X131651298Y-85391853D01*
X131523119Y-85436706D01*
X131523117Y-85436707D01*
X131413850Y-85517350D01*
X131333207Y-85626617D01*
X131333206Y-85626619D01*
X131288353Y-85754798D01*
X131288353Y-85754800D01*
X131285500Y-85785230D01*
X127181500Y-85785230D01*
X127181500Y-78674108D01*
X131985900Y-78674108D01*
X131985900Y-78805891D01*
X132020008Y-78933187D01*
X132052954Y-78990250D01*
X132085900Y-79047314D01*
X132085902Y-79047316D01*
X132149581Y-79110995D01*
X132183066Y-79172318D01*
X132185900Y-79198676D01*
X132185900Y-82386362D01*
X132199552Y-82437313D01*
X132206379Y-82462790D01*
X132206382Y-82462795D01*
X132245935Y-82531304D01*
X132245941Y-82531312D01*
X134333981Y-84619352D01*
X134367466Y-84680675D01*
X134370300Y-84707033D01*
X134370300Y-88685562D01*
X134383952Y-88736513D01*
X134390779Y-88761990D01*
X134390780Y-88761991D01*
X134426106Y-88823178D01*
X134430340Y-88830511D01*
X134430342Y-88830514D01*
X135454781Y-89854952D01*
X135488266Y-89916275D01*
X135491100Y-89942633D01*
X135491100Y-90032691D01*
X135525208Y-90159987D01*
X135558154Y-90217050D01*
X135591100Y-90274114D01*
X135684286Y-90367300D01*
X135798414Y-90433192D01*
X135925708Y-90467300D01*
X135925710Y-90467300D01*
X136057490Y-90467300D01*
X136057492Y-90467300D01*
X136184786Y-90433192D01*
X136298914Y-90367300D01*
X136392100Y-90274114D01*
X136457992Y-90159986D01*
X136492100Y-90032692D01*
X136492100Y-89900908D01*
X136457992Y-89773614D01*
X136392100Y-89659486D01*
X136298914Y-89566300D01*
X136241850Y-89533354D01*
X136184787Y-89500408D01*
X136121139Y-89483354D01*
X136057492Y-89466300D01*
X135967433Y-89466300D01*
X135900394Y-89446615D01*
X135879752Y-89429981D01*
X135007619Y-88557848D01*
X134974134Y-88496525D01*
X134971300Y-88470167D01*
X134971300Y-84491639D01*
X134950820Y-84415209D01*
X134950817Y-84415204D01*
X134911264Y-84346695D01*
X134911258Y-84346687D01*
X132823219Y-82258648D01*
X132789734Y-82197325D01*
X132786900Y-82170967D01*
X132786900Y-79198676D01*
X132806585Y-79131637D01*
X132823219Y-79110995D01*
X132886900Y-79047314D01*
X132952792Y-78933186D01*
X132986900Y-78805892D01*
X132986900Y-78674108D01*
X132952792Y-78546814D01*
X132886900Y-78432686D01*
X132793714Y-78339500D01*
X132736650Y-78306554D01*
X132679587Y-78273608D01*
X132615939Y-78256554D01*
X132552292Y-78239500D01*
X132420508Y-78239500D01*
X132293212Y-78273608D01*
X132179086Y-78339500D01*
X132179083Y-78339502D01*
X132085902Y-78432683D01*
X132085900Y-78432686D01*
X132020008Y-78546812D01*
X131985900Y-78674108D01*
X127181500Y-78674108D01*
X127181500Y-77023108D01*
X135389500Y-77023108D01*
X135389500Y-77154891D01*
X135423608Y-77282187D01*
X135456554Y-77339250D01*
X135489500Y-77396314D01*
X135582686Y-77489500D01*
X135696814Y-77555392D01*
X135824108Y-77589500D01*
X135824110Y-77589500D01*
X135955889Y-77589500D01*
X135955892Y-77589500D01*
X135977330Y-77583755D01*
X136002628Y-77579718D01*
X136011514Y-77579232D01*
X136079771Y-77561725D01*
X136091733Y-77558267D01*
X136093077Y-77557834D01*
X136104731Y-77553689D01*
X136167076Y-77529373D01*
X136181898Y-77522909D01*
X136183562Y-77522104D01*
X136197953Y-77514423D01*
X136300304Y-77454456D01*
X136303829Y-77452343D01*
X136304196Y-77452118D01*
X136307130Y-77450285D01*
X136342294Y-77427902D01*
X136355660Y-77420510D01*
X136367777Y-77414754D01*
X136390096Y-77406667D01*
X136405746Y-77402644D01*
X136427785Y-77399054D01*
X136488007Y-77394754D01*
X136491540Y-77393852D01*
X136493515Y-77393349D01*
X136524169Y-77389500D01*
X141810167Y-77389500D01*
X141877206Y-77409185D01*
X141897848Y-77425819D01*
X145332181Y-80860152D01*
X145365666Y-80921475D01*
X145368500Y-80947833D01*
X145368500Y-86744247D01*
X145367800Y-86757401D01*
X145366809Y-86766683D01*
X145363209Y-86780412D01*
X145360441Y-86826382D01*
X145360136Y-86829242D01*
X145357437Y-86835772D01*
X145348613Y-86869770D01*
X145334732Y-86898673D01*
X145322540Y-86918875D01*
X145304049Y-86943797D01*
X145301478Y-86947340D01*
X145301286Y-86947610D01*
X145299085Y-86950775D01*
X145232896Y-87047867D01*
X145223075Y-87063783D01*
X145222040Y-87065645D01*
X145213608Y-87082613D01*
X145213602Y-87082627D01*
X145185010Y-87147512D01*
X145179273Y-87161993D01*
X145178699Y-87163620D01*
X145174116Y-87178344D01*
X145154252Y-87251762D01*
X145152598Y-87258302D01*
X145152422Y-87259047D01*
X145152412Y-87259595D01*
X145152088Y-87276561D01*
X145143100Y-87310108D01*
X145143100Y-87441892D01*
X145153572Y-87480977D01*
X145154917Y-87496501D01*
X145154918Y-87496519D01*
X145155573Y-87504077D01*
X145201225Y-87661174D01*
X145205394Y-87673945D01*
X145205928Y-87675416D01*
X145210941Y-87687924D01*
X145237082Y-87747405D01*
X145239317Y-87752837D01*
X145270757Y-87834698D01*
X145277039Y-87857184D01*
X145281675Y-87882934D01*
X145283482Y-87898729D01*
X145287000Y-87969339D01*
X145287349Y-87970804D01*
X145288929Y-87977440D01*
X145292300Y-88006157D01*
X145292300Y-89206766D01*
X145272615Y-89273805D01*
X145255981Y-89294447D01*
X144307647Y-90242781D01*
X144246324Y-90276266D01*
X144219966Y-90279100D01*
X144129908Y-90279100D01*
X144002612Y-90313208D01*
X143888486Y-90379100D01*
X143888483Y-90379102D01*
X143795302Y-90472283D01*
X143795300Y-90472286D01*
X143729408Y-90586412D01*
X143695300Y-90713708D01*
X143695300Y-90845491D01*
X143729408Y-90972787D01*
X143743313Y-90996870D01*
X143795300Y-91086914D01*
X143888486Y-91180100D01*
X144002614Y-91245992D01*
X144129908Y-91280100D01*
X144129910Y-91280100D01*
X144261690Y-91280100D01*
X144261692Y-91280100D01*
X144388986Y-91245992D01*
X144503114Y-91180100D01*
X144596300Y-91086914D01*
X144662192Y-90972786D01*
X144696300Y-90845492D01*
X144696300Y-90755432D01*
X144715985Y-90688393D01*
X144732619Y-90667751D01*
X145833254Y-89567117D01*
X145833254Y-89567116D01*
X145833260Y-89567111D01*
X145833728Y-89566300D01*
X145872821Y-89498589D01*
X145893300Y-89422162D01*
X145893300Y-88006340D01*
X145893846Y-87994721D01*
X145894750Y-87985114D01*
X145898599Y-87969986D01*
X145901695Y-87911320D01*
X145901934Y-87908781D01*
X145905377Y-87900146D01*
X145915975Y-87862052D01*
X145927521Y-87840402D01*
X145939412Y-87822171D01*
X145960238Y-87795657D01*
X145961455Y-87794091D01*
X145961619Y-87793878D01*
X145963274Y-87791700D01*
X145963697Y-87791136D01*
X146039615Y-87689771D01*
X146050142Y-87675716D01*
X146053346Y-87671317D01*
X146053691Y-87670830D01*
X146057916Y-87661046D01*
X146064365Y-87648212D01*
X146109991Y-87569188D01*
X146110904Y-87565781D01*
X146144100Y-87441892D01*
X146144100Y-87310108D01*
X146135632Y-87278505D01*
X146132015Y-87258672D01*
X146131390Y-87252380D01*
X146130691Y-87245342D01*
X146087482Y-87103311D01*
X146081361Y-87086006D01*
X146080576Y-87084067D01*
X146072901Y-87067312D01*
X146062916Y-87047867D01*
X146030842Y-86985404D01*
X146028755Y-86981141D01*
X146014604Y-86950775D01*
X145993473Y-86905433D01*
X145984731Y-86879546D01*
X145984090Y-86876618D01*
X145981367Y-86864161D01*
X145978734Y-86845206D01*
X145974789Y-86780286D01*
X145973109Y-86773474D01*
X145969500Y-86743776D01*
X145969500Y-80732440D01*
X145969500Y-80732438D01*
X145949022Y-80656012D01*
X145909460Y-80587489D01*
X142170511Y-76848540D01*
X142170509Y-76848539D01*
X142170504Y-76848535D01*
X142101995Y-76808982D01*
X142101990Y-76808979D01*
X142076513Y-76802152D01*
X142025562Y-76788500D01*
X142025560Y-76788500D01*
X136521065Y-76788500D01*
X136508679Y-76787880D01*
X136499233Y-76786931D01*
X136484803Y-76783203D01*
X136432762Y-76780258D01*
X136430076Y-76779989D01*
X136429150Y-76779613D01*
X136418419Y-76778255D01*
X136412153Y-76777017D01*
X136385413Y-76768492D01*
X136344015Y-76749904D01*
X136327301Y-76740798D01*
X136308643Y-76728689D01*
X136304903Y-76726318D01*
X136304534Y-76726090D01*
X136301083Y-76724002D01*
X136301052Y-76723983D01*
X136203783Y-76666414D01*
X136203780Y-76666412D01*
X136203771Y-76666407D01*
X136189839Y-76658871D01*
X136188212Y-76658071D01*
X136173720Y-76651624D01*
X136173717Y-76651622D01*
X136173704Y-76651617D01*
X136135250Y-76636261D01*
X136109461Y-76625963D01*
X136097246Y-76621530D01*
X136097241Y-76621528D01*
X136097229Y-76621524D01*
X136095852Y-76621073D01*
X136095854Y-76621073D01*
X136095837Y-76621068D01*
X136083451Y-76617439D01*
X136011950Y-76598911D01*
X136006771Y-76597642D01*
X136006334Y-76597541D01*
X136006124Y-76597493D01*
X136006122Y-76597492D01*
X136006116Y-76597492D01*
X136003578Y-76597449D01*
X135973593Y-76593242D01*
X135955897Y-76588500D01*
X135955892Y-76588500D01*
X135824108Y-76588500D01*
X135696812Y-76622608D01*
X135582686Y-76688500D01*
X135582683Y-76688502D01*
X135489502Y-76781683D01*
X135489500Y-76781686D01*
X135423608Y-76895812D01*
X135389500Y-77023108D01*
X127181500Y-77023108D01*
X127181500Y-74483108D01*
X135389500Y-74483108D01*
X135389500Y-74614891D01*
X135423608Y-74742187D01*
X135456554Y-74799250D01*
X135489500Y-74856314D01*
X135582686Y-74949500D01*
X135696814Y-75015392D01*
X135824108Y-75049500D01*
X135824110Y-75049500D01*
X135955889Y-75049500D01*
X135955892Y-75049500D01*
X135977330Y-75043755D01*
X136002628Y-75039718D01*
X136011514Y-75039232D01*
X136079771Y-75021725D01*
X136091733Y-75018267D01*
X136093077Y-75017834D01*
X136104731Y-75013689D01*
X136167076Y-74989373D01*
X136181898Y-74982909D01*
X136183562Y-74982104D01*
X136197953Y-74974423D01*
X136300304Y-74914456D01*
X136303829Y-74912343D01*
X136304196Y-74912118D01*
X136307130Y-74910285D01*
X136342294Y-74887902D01*
X136355660Y-74880510D01*
X136367777Y-74874754D01*
X136390096Y-74866667D01*
X136405746Y-74862644D01*
X136427785Y-74859054D01*
X136488007Y-74854754D01*
X136491540Y-74853852D01*
X136493515Y-74853349D01*
X136524169Y-74849500D01*
X143588167Y-74849500D01*
X143655206Y-74869185D01*
X143675848Y-74885819D01*
X149142181Y-80352152D01*
X149175666Y-80413475D01*
X149178500Y-80439833D01*
X149178500Y-86744247D01*
X149177800Y-86757401D01*
X149176809Y-86766683D01*
X149173209Y-86780412D01*
X149170441Y-86826382D01*
X149170136Y-86829242D01*
X149167437Y-86835772D01*
X149158613Y-86869770D01*
X149144732Y-86898673D01*
X149132540Y-86918875D01*
X149114049Y-86943797D01*
X149111478Y-86947340D01*
X149111286Y-86947610D01*
X149109085Y-86950775D01*
X149042896Y-87047867D01*
X149033075Y-87063783D01*
X149032040Y-87065645D01*
X149023608Y-87082613D01*
X149023602Y-87082627D01*
X148995010Y-87147512D01*
X148989273Y-87161993D01*
X148988699Y-87163620D01*
X148984116Y-87178344D01*
X148964252Y-87251762D01*
X148962598Y-87258302D01*
X148962422Y-87259047D01*
X148962403Y-87260048D01*
X148962403Y-87260085D01*
X148962088Y-87276561D01*
X148953100Y-87310108D01*
X148953100Y-87441892D01*
X148962176Y-87475764D01*
X148963055Y-87491831D01*
X148963056Y-87491855D01*
X148963366Y-87497512D01*
X148980871Y-87565760D01*
X148980876Y-87565778D01*
X148980877Y-87565781D01*
X148984366Y-87577842D01*
X148984371Y-87577860D01*
X148984375Y-87577871D01*
X148984789Y-87579154D01*
X148988911Y-87590731D01*
X149013221Y-87653067D01*
X149019684Y-87667886D01*
X149020501Y-87669575D01*
X149028180Y-87683960D01*
X149088107Y-87786243D01*
X149088136Y-87786292D01*
X149088144Y-87786305D01*
X149090256Y-87789829D01*
X149090291Y-87789886D01*
X149090444Y-87790137D01*
X149090481Y-87790196D01*
X149092314Y-87793130D01*
X149110798Y-87822171D01*
X149114698Y-87828298D01*
X149122090Y-87841664D01*
X149127840Y-87853766D01*
X149135934Y-87876108D01*
X149139953Y-87891742D01*
X149143543Y-87913778D01*
X149147846Y-87974013D01*
X149149250Y-87979512D01*
X149153100Y-88010171D01*
X149153100Y-88927366D01*
X149133415Y-88994405D01*
X149116781Y-89015047D01*
X146923847Y-91207981D01*
X146862524Y-91241466D01*
X146836166Y-91244300D01*
X146746108Y-91244300D01*
X146618812Y-91278408D01*
X146504686Y-91344300D01*
X146504683Y-91344302D01*
X146411502Y-91437483D01*
X146411500Y-91437486D01*
X146345608Y-91551612D01*
X146311500Y-91678908D01*
X146311500Y-91810691D01*
X146345608Y-91937987D01*
X146378554Y-91995050D01*
X146411500Y-92052114D01*
X146504686Y-92145300D01*
X146575080Y-92185942D01*
X146623295Y-92236510D01*
X146636517Y-92305117D01*
X146610549Y-92369981D01*
X146600760Y-92381010D01*
X142284089Y-96697684D01*
X142228141Y-96753631D01*
X142228135Y-96753639D01*
X142188582Y-96822148D01*
X142188579Y-96822153D01*
X142184242Y-96838340D01*
X142169251Y-96894289D01*
X142168100Y-96898583D01*
X142168100Y-98553967D01*
X142148415Y-98621006D01*
X142131781Y-98641648D01*
X138595941Y-102177487D01*
X138595935Y-102177495D01*
X138556382Y-102246004D01*
X138553270Y-102253518D01*
X138551180Y-102252652D01*
X138520905Y-102302306D01*
X138458053Y-102332825D01*
X138388679Y-102324520D01*
X138334808Y-102280026D01*
X138327024Y-102266833D01*
X138313761Y-102240802D01*
X138267765Y-102177495D01*
X138202690Y-102087927D01*
X138069073Y-101954310D01*
X137916199Y-101843240D01*
X137747836Y-101757454D01*
X137568118Y-101699059D01*
X137381486Y-101669500D01*
X137381481Y-101669500D01*
X137192519Y-101669500D01*
X137192514Y-101669500D01*
X137005881Y-101699059D01*
X136826163Y-101757454D01*
X136657800Y-101843240D01*
X136579513Y-101900120D01*
X136504927Y-101954310D01*
X136504925Y-101954312D01*
X136504924Y-101954312D01*
X136371312Y-102087924D01*
X136371312Y-102087925D01*
X136371310Y-102087927D01*
X136365808Y-102095500D01*
X136260240Y-102240800D01*
X136174454Y-102409163D01*
X136116059Y-102588881D01*
X136086500Y-102775513D01*
X136086500Y-102964486D01*
X136116059Y-103151118D01*
X136174454Y-103330836D01*
X136240028Y-103459531D01*
X136260240Y-103499199D01*
X136371310Y-103652073D01*
X136504927Y-103785690D01*
X136657801Y-103896760D01*
X136737347Y-103937290D01*
X136826163Y-103982545D01*
X136826165Y-103982545D01*
X136826168Y-103982547D01*
X136922497Y-104013846D01*
X137005881Y-104040940D01*
X137192514Y-104070500D01*
X137192519Y-104070500D01*
X137381486Y-104070500D01*
X137568118Y-104040940D01*
X137747832Y-103982547D01*
X137916199Y-103896760D01*
X138069073Y-103785690D01*
X138202690Y-103652073D01*
X138311583Y-103502195D01*
X138366912Y-103459531D01*
X138436526Y-103453552D01*
X138498321Y-103486158D01*
X138532678Y-103546997D01*
X138535900Y-103575082D01*
X138535900Y-111951962D01*
X138549552Y-112002913D01*
X138556379Y-112028390D01*
X138556380Y-112028391D01*
X138585468Y-112078773D01*
X138595940Y-112096911D01*
X141897940Y-115398911D01*
X141953889Y-115454860D01*
X141953891Y-115454861D01*
X141953895Y-115454864D01*
X142022404Y-115494417D01*
X142022411Y-115494421D01*
X142098838Y-115514900D01*
X146759724Y-115514900D01*
X146826763Y-115534585D01*
X146847405Y-115551219D01*
X146911086Y-115614900D01*
X147025214Y-115680792D01*
X147152508Y-115714900D01*
X147152510Y-115714900D01*
X147284290Y-115714900D01*
X147284292Y-115714900D01*
X147411586Y-115680792D01*
X147525714Y-115614900D01*
X147618900Y-115521714D01*
X147684792Y-115407586D01*
X147718900Y-115280292D01*
X147718900Y-115148508D01*
X147684792Y-115021214D01*
X147618900Y-114907086D01*
X147525714Y-114813900D01*
X147468650Y-114780954D01*
X147411587Y-114748008D01*
X147347939Y-114730954D01*
X147284292Y-114713900D01*
X147152508Y-114713900D01*
X147025212Y-114748008D01*
X146911086Y-114813900D01*
X146911083Y-114813902D01*
X146847405Y-114877581D01*
X146786082Y-114911066D01*
X146759724Y-114913900D01*
X142314233Y-114913900D01*
X142247194Y-114894215D01*
X142226552Y-114877581D01*
X139173219Y-111824248D01*
X139139734Y-111762925D01*
X139136900Y-111736567D01*
X139136900Y-103643238D01*
X139551900Y-103643238D01*
X139551900Y-110732762D01*
X139565552Y-110783713D01*
X139572379Y-110809190D01*
X139572382Y-110809195D01*
X139611935Y-110877704D01*
X139611939Y-110877709D01*
X139611940Y-110877711D01*
X142659940Y-113925711D01*
X142715889Y-113981660D01*
X142715891Y-113981661D01*
X142715895Y-113981664D01*
X142784404Y-114021217D01*
X142784411Y-114021221D01*
X142860838Y-114041700D01*
X146251724Y-114041700D01*
X146318763Y-114061385D01*
X146339405Y-114078019D01*
X146403086Y-114141700D01*
X146517214Y-114207592D01*
X146644508Y-114241700D01*
X146644510Y-114241700D01*
X146776290Y-114241700D01*
X146776292Y-114241700D01*
X146903586Y-114207592D01*
X147017714Y-114141700D01*
X147110900Y-114048514D01*
X147176792Y-113934386D01*
X147210900Y-113807092D01*
X147210900Y-113675308D01*
X147176792Y-113548014D01*
X147110900Y-113433886D01*
X147017714Y-113340700D01*
X146960650Y-113307754D01*
X146903587Y-113274808D01*
X146839939Y-113257754D01*
X146776292Y-113240700D01*
X146644508Y-113240700D01*
X146517212Y-113274808D01*
X146403086Y-113340700D01*
X146403083Y-113340702D01*
X146339405Y-113404381D01*
X146278082Y-113437866D01*
X146251724Y-113440700D01*
X143076233Y-113440700D01*
X143009194Y-113421015D01*
X142988552Y-113404381D01*
X140413779Y-110829608D01*
X143568300Y-110829608D01*
X143568300Y-110961391D01*
X143602408Y-111088687D01*
X143616779Y-111113577D01*
X143668300Y-111202814D01*
X143761486Y-111296000D01*
X143875614Y-111361892D01*
X144002908Y-111396000D01*
X144002910Y-111396000D01*
X144134690Y-111396000D01*
X144134692Y-111396000D01*
X144261986Y-111361892D01*
X144376114Y-111296000D01*
X144439795Y-111232319D01*
X144501118Y-111198834D01*
X144527476Y-111196000D01*
X145197727Y-111196000D01*
X145264766Y-111215685D01*
X145285408Y-111232319D01*
X145583047Y-111529958D01*
X145616532Y-111591281D01*
X145619366Y-111617639D01*
X145619366Y-111707697D01*
X145653474Y-111834993D01*
X145686420Y-111892056D01*
X145719366Y-111949120D01*
X145812552Y-112042306D01*
X145926680Y-112108198D01*
X146053974Y-112142306D01*
X146053976Y-112142306D01*
X146185756Y-112142306D01*
X146185758Y-112142306D01*
X146313052Y-112108198D01*
X146427180Y-112042306D01*
X146520366Y-111949120D01*
X146586258Y-111834992D01*
X146620366Y-111707698D01*
X146620366Y-111575914D01*
X146586258Y-111448620D01*
X146520366Y-111334492D01*
X146427180Y-111241306D01*
X146360510Y-111202814D01*
X146313053Y-111175414D01*
X146249405Y-111158360D01*
X146185758Y-111141306D01*
X146095699Y-111141306D01*
X146028660Y-111121621D01*
X146008018Y-111104987D01*
X145558072Y-110655041D01*
X145558067Y-110655037D01*
X145548625Y-110649586D01*
X145548624Y-110649586D01*
X145489551Y-110615480D01*
X145489550Y-110615479D01*
X145464073Y-110608652D01*
X145413122Y-110595000D01*
X145413120Y-110595000D01*
X144527476Y-110595000D01*
X144460437Y-110575315D01*
X144439795Y-110558681D01*
X144376116Y-110495002D01*
X144376114Y-110495000D01*
X144319050Y-110462054D01*
X144261987Y-110429108D01*
X144198339Y-110412054D01*
X144134692Y-110395000D01*
X144002908Y-110395000D01*
X143875612Y-110429108D01*
X143761486Y-110495000D01*
X143761483Y-110495002D01*
X143668302Y-110588183D01*
X143668300Y-110588186D01*
X143602408Y-110702312D01*
X143568300Y-110829608D01*
X140413779Y-110829608D01*
X140189219Y-110605048D01*
X140155734Y-110543725D01*
X140152900Y-110517367D01*
X140152900Y-103858633D01*
X140172585Y-103791594D01*
X140189219Y-103770952D01*
X143569063Y-100391108D01*
X145600300Y-100391108D01*
X145600300Y-100522891D01*
X145634408Y-100650187D01*
X145651433Y-100679674D01*
X145700300Y-100764314D01*
X145700302Y-100764316D01*
X145763981Y-100827995D01*
X145797466Y-100889318D01*
X145800300Y-100915676D01*
X145800300Y-103874762D01*
X145813952Y-103925713D01*
X145820779Y-103951190D01*
X145820782Y-103951195D01*
X145860335Y-104019704D01*
X145860341Y-104019712D01*
X148913581Y-107072952D01*
X148947066Y-107134275D01*
X148949900Y-107160633D01*
X148949900Y-108554743D01*
X148930215Y-108621782D01*
X148877411Y-108667537D01*
X148857994Y-108674518D01*
X148826936Y-108682839D01*
X148752414Y-108702808D01*
X148752412Y-108702808D01*
X148752412Y-108702809D01*
X148638286Y-108768700D01*
X148638283Y-108768702D01*
X148545102Y-108861883D01*
X148545100Y-108861886D01*
X148479208Y-108976012D01*
X148445100Y-109103308D01*
X148445100Y-109235091D01*
X148479208Y-109362387D01*
X148495833Y-109391181D01*
X148545100Y-109476514D01*
X148638286Y-109569700D01*
X148752414Y-109635592D01*
X148879708Y-109669700D01*
X148879710Y-109669700D01*
X149011490Y-109669700D01*
X149011492Y-109669700D01*
X149138786Y-109635592D01*
X149252914Y-109569700D01*
X149346100Y-109476514D01*
X149411992Y-109362386D01*
X149446100Y-109235092D01*
X149446100Y-109145033D01*
X149465785Y-109077994D01*
X149466762Y-109076497D01*
X149473631Y-109066139D01*
X149490860Y-109048911D01*
X149527938Y-108984689D01*
X149530421Y-108980389D01*
X149532643Y-108972095D01*
X149965900Y-108972095D01*
X149965900Y-109683362D01*
X149986379Y-109759789D01*
X150009596Y-109800002D01*
X150025940Y-109828311D01*
X150077439Y-109879810D01*
X150081256Y-109884449D01*
X150085005Y-109893247D01*
X150093037Y-109905266D01*
X150094265Y-109904558D01*
X150103865Y-109921186D01*
X150164220Y-110025723D01*
X150257406Y-110118909D01*
X150371534Y-110184801D01*
X150498828Y-110218909D01*
X150498830Y-110218909D01*
X150630610Y-110218909D01*
X150630612Y-110218909D01*
X150757906Y-110184801D01*
X150872034Y-110118909D01*
X150965220Y-110025723D01*
X151031112Y-109911595D01*
X151065220Y-109784301D01*
X151065220Y-109652517D01*
X151031112Y-109525223D01*
X150965220Y-109411095D01*
X150872034Y-109317909D01*
X150814970Y-109284963D01*
X150757907Y-109252017D01*
X150738211Y-109246740D01*
X150723319Y-109242749D01*
X150663659Y-109206384D01*
X150633131Y-109143537D01*
X150641426Y-109074162D01*
X150667730Y-109035297D01*
X153855316Y-105847710D01*
X153916637Y-105814227D01*
X153986329Y-105819211D01*
X153993294Y-105822493D01*
X153993300Y-105822480D01*
X154000809Y-105825589D01*
X154000814Y-105825592D01*
X154128108Y-105859700D01*
X154128110Y-105859700D01*
X154259890Y-105859700D01*
X154259892Y-105859700D01*
X154387186Y-105825592D01*
X154501314Y-105759700D01*
X154594500Y-105666514D01*
X154635142Y-105596119D01*
X154685708Y-105547904D01*
X154754315Y-105534680D01*
X154819180Y-105560648D01*
X154830210Y-105570438D01*
X156431981Y-107172209D01*
X156465466Y-107233532D01*
X156468300Y-107259890D01*
X156468300Y-109602967D01*
X156448615Y-109670006D01*
X156431981Y-109690648D01*
X154327948Y-111794681D01*
X154266625Y-111828166D01*
X154240267Y-111831000D01*
X153468276Y-111831000D01*
X153401237Y-111811315D01*
X153380595Y-111794681D01*
X153316916Y-111731002D01*
X153316914Y-111731000D01*
X153259850Y-111698054D01*
X153202787Y-111665108D01*
X153139139Y-111648054D01*
X153075492Y-111631000D01*
X152943708Y-111631000D01*
X152943703Y-111631000D01*
X152918969Y-111637628D01*
X152849119Y-111635964D01*
X152791258Y-111596801D01*
X152763755Y-111532572D01*
X152775342Y-111463670D01*
X152799194Y-111430175D01*
X154164552Y-110064819D01*
X154225875Y-110031334D01*
X154252233Y-110028500D01*
X154836924Y-110028500D01*
X154903963Y-110048185D01*
X154924605Y-110064819D01*
X154988286Y-110128500D01*
X155102414Y-110194392D01*
X155229708Y-110228500D01*
X155229710Y-110228500D01*
X155361490Y-110228500D01*
X155361492Y-110228500D01*
X155488786Y-110194392D01*
X155602914Y-110128500D01*
X155696100Y-110035314D01*
X155761992Y-109921186D01*
X155796100Y-109793892D01*
X155796100Y-109662108D01*
X155761992Y-109534814D01*
X155756453Y-109525221D01*
X155734698Y-109487540D01*
X155696100Y-109420686D01*
X155602914Y-109327500D01*
X155533577Y-109287468D01*
X155488787Y-109261608D01*
X155418406Y-109242750D01*
X155361492Y-109227500D01*
X155229708Y-109227500D01*
X155102412Y-109261608D01*
X154988286Y-109327500D01*
X154988283Y-109327502D01*
X154924605Y-109391181D01*
X154863282Y-109424666D01*
X154836924Y-109427500D01*
X154036838Y-109427500D01*
X153998624Y-109437739D01*
X153960409Y-109447979D01*
X153935329Y-109462459D01*
X153922789Y-109469700D01*
X153913608Y-109475000D01*
X153891889Y-109487539D01*
X152207047Y-111172381D01*
X152145724Y-111205866D01*
X152119366Y-111208700D01*
X152029308Y-111208700D01*
X151902012Y-111242808D01*
X151787886Y-111308700D01*
X151787883Y-111308702D01*
X151694702Y-111401883D01*
X151694700Y-111401886D01*
X151628808Y-111516012D01*
X151594700Y-111643308D01*
X151594700Y-111775091D01*
X151628808Y-111902387D01*
X151649551Y-111938314D01*
X151694700Y-112016514D01*
X151787886Y-112109700D01*
X151902014Y-112175592D01*
X152029308Y-112209700D01*
X152029310Y-112209700D01*
X152161090Y-112209700D01*
X152161092Y-112209700D01*
X152288386Y-112175592D01*
X152334522Y-112148955D01*
X152402418Y-112132482D01*
X152468446Y-112155333D01*
X152511638Y-112210253D01*
X152516295Y-112224247D01*
X152543208Y-112324686D01*
X152609100Y-112438814D01*
X152702286Y-112532000D01*
X152816414Y-112597892D01*
X152943708Y-112632000D01*
X152943710Y-112632000D01*
X153075490Y-112632000D01*
X153075492Y-112632000D01*
X153202786Y-112597892D01*
X153316914Y-112532000D01*
X153380595Y-112468319D01*
X153441918Y-112434834D01*
X153468276Y-112432000D01*
X154455660Y-112432000D01*
X154455662Y-112432000D01*
X154532089Y-112411521D01*
X154600611Y-112371960D01*
X154656560Y-112316011D01*
X157009260Y-109963311D01*
X157032059Y-109923821D01*
X157048821Y-109894789D01*
X157069300Y-109818362D01*
X157069300Y-107044495D01*
X157063905Y-107024362D01*
X157048822Y-106968069D01*
X157009260Y-106899546D01*
X155031419Y-104921705D01*
X154997934Y-104860382D01*
X154995100Y-104834024D01*
X154995100Y-102775513D01*
X160597500Y-102775513D01*
X160597500Y-102964486D01*
X160627059Y-103151118D01*
X160685454Y-103330836D01*
X160751028Y-103459531D01*
X160771240Y-103499199D01*
X160882310Y-103652073D01*
X161015927Y-103785690D01*
X161168801Y-103896760D01*
X161248347Y-103937290D01*
X161337163Y-103982545D01*
X161337165Y-103982545D01*
X161337168Y-103982547D01*
X161433497Y-104013846D01*
X161516881Y-104040940D01*
X161703514Y-104070500D01*
X161703519Y-104070500D01*
X161892486Y-104070500D01*
X162079118Y-104040940D01*
X162258832Y-103982547D01*
X162427199Y-103896760D01*
X162580073Y-103785690D01*
X162713690Y-103652073D01*
X162824760Y-103499199D01*
X162910547Y-103330832D01*
X162968940Y-103151118D01*
X162998500Y-102964486D01*
X162998500Y-102775513D01*
X162968940Y-102588881D01*
X162935664Y-102486471D01*
X162910547Y-102409168D01*
X162910545Y-102409165D01*
X162910545Y-102409163D01*
X162838024Y-102266833D01*
X162824760Y-102240801D01*
X162713690Y-102087927D01*
X162580073Y-101954310D01*
X162427199Y-101843240D01*
X162258836Y-101757454D01*
X162079118Y-101699059D01*
X161892486Y-101669500D01*
X161892481Y-101669500D01*
X161703519Y-101669500D01*
X161703514Y-101669500D01*
X161516881Y-101699059D01*
X161337163Y-101757454D01*
X161168800Y-101843240D01*
X161090513Y-101900120D01*
X161015927Y-101954310D01*
X161015925Y-101954312D01*
X161015924Y-101954312D01*
X160882312Y-102087924D01*
X160882312Y-102087925D01*
X160882310Y-102087927D01*
X160876808Y-102095500D01*
X160771240Y-102240800D01*
X160685454Y-102409163D01*
X160627059Y-102588881D01*
X160597500Y-102775513D01*
X154995100Y-102775513D01*
X154995100Y-95798436D01*
X155014785Y-95731397D01*
X155067589Y-95685642D01*
X155136747Y-95675698D01*
X155151171Y-95678656D01*
X155229708Y-95699700D01*
X155229711Y-95699700D01*
X155361490Y-95699700D01*
X155361492Y-95699700D01*
X155488786Y-95665592D01*
X155602914Y-95599700D01*
X155696100Y-95506514D01*
X155761992Y-95392386D01*
X155796100Y-95265092D01*
X155796100Y-95175032D01*
X155815785Y-95107993D01*
X155832419Y-95087351D01*
X156041823Y-94877947D01*
X160298000Y-94877947D01*
X160298000Y-95114052D01*
X160334934Y-95347247D01*
X160407897Y-95571802D01*
X160515087Y-95782174D01*
X160575338Y-95865104D01*
X160575340Y-95865105D01*
X161315037Y-95125408D01*
X161332075Y-95188993D01*
X161397901Y-95303007D01*
X161490993Y-95396099D01*
X161605007Y-95461925D01*
X161668590Y-95478962D01*
X160928893Y-96218658D01*
X161011828Y-96278914D01*
X161222197Y-96386102D01*
X161446752Y-96459065D01*
X161446751Y-96459065D01*
X161679948Y-96496000D01*
X161916052Y-96496000D01*
X162149247Y-96459065D01*
X162373802Y-96386102D01*
X162584163Y-96278918D01*
X162584169Y-96278914D01*
X162667104Y-96218658D01*
X162667105Y-96218658D01*
X161927408Y-95478962D01*
X161990993Y-95461925D01*
X162105007Y-95396099D01*
X162198099Y-95303007D01*
X162263925Y-95188993D01*
X162280962Y-95125408D01*
X163020658Y-95865105D01*
X163020658Y-95865104D01*
X163080914Y-95782169D01*
X163080918Y-95782163D01*
X163188102Y-95571802D01*
X163261065Y-95347247D01*
X163298000Y-95114052D01*
X163298000Y-94877947D01*
X163261065Y-94644752D01*
X163188102Y-94420197D01*
X163080914Y-94209828D01*
X163020658Y-94126894D01*
X163020658Y-94126893D01*
X162280962Y-94866590D01*
X162263925Y-94803007D01*
X162198099Y-94688993D01*
X162105007Y-94595901D01*
X161990993Y-94530075D01*
X161927409Y-94513037D01*
X162667105Y-93773340D01*
X162667104Y-93773338D01*
X162584174Y-93713087D01*
X162373802Y-93605897D01*
X162149247Y-93532934D01*
X162149248Y-93532934D01*
X161916052Y-93496000D01*
X161679948Y-93496000D01*
X161446752Y-93532934D01*
X161222197Y-93605897D01*
X161011830Y-93713084D01*
X160928894Y-93773340D01*
X161668591Y-94513037D01*
X161605007Y-94530075D01*
X161490993Y-94595901D01*
X161397901Y-94688993D01*
X161332075Y-94803007D01*
X161315037Y-94866591D01*
X160575340Y-94126894D01*
X160515084Y-94209830D01*
X160407897Y-94420197D01*
X160334934Y-94644752D01*
X160298000Y-94877947D01*
X156041823Y-94877947D01*
X156134376Y-94785394D01*
X156275019Y-94644752D01*
X156704552Y-94215219D01*
X156765875Y-94181734D01*
X156792233Y-94178900D01*
X158291324Y-94178900D01*
X158358363Y-94198585D01*
X158379005Y-94215219D01*
X158442686Y-94278900D01*
X158556814Y-94344792D01*
X158684108Y-94378900D01*
X158684110Y-94378900D01*
X158815890Y-94378900D01*
X158815892Y-94378900D01*
X158943186Y-94344792D01*
X159057314Y-94278900D01*
X159150500Y-94185714D01*
X159216392Y-94071586D01*
X159250500Y-93944292D01*
X159250500Y-93812508D01*
X159216392Y-93685214D01*
X159150500Y-93571086D01*
X159057314Y-93477900D01*
X159000250Y-93444954D01*
X158943187Y-93412008D01*
X158879539Y-93394954D01*
X158815892Y-93377900D01*
X158684108Y-93377900D01*
X158556812Y-93412008D01*
X158442686Y-93477900D01*
X158442683Y-93477902D01*
X158379005Y-93541581D01*
X158317682Y-93575066D01*
X158291324Y-93577900D01*
X156576838Y-93577900D01*
X156538624Y-93588139D01*
X156500409Y-93598379D01*
X156487713Y-93605710D01*
X156487712Y-93605710D01*
X156431895Y-93637935D01*
X156431887Y-93637941D01*
X155407447Y-94662381D01*
X155387088Y-94673497D01*
X155369289Y-94688382D01*
X155353993Y-94691568D01*
X155346124Y-94695866D01*
X155335255Y-94697729D01*
X155327542Y-94698700D01*
X155229708Y-94698700D01*
X155143000Y-94721933D01*
X155134589Y-94722992D01*
X155108135Y-94718712D01*
X155081343Y-94718075D01*
X155074167Y-94713218D01*
X155065616Y-94711835D01*
X155045675Y-94693933D01*
X155023481Y-94678912D01*
X155020070Y-94670948D01*
X155013623Y-94665160D01*
X155006525Y-94639316D01*
X154995977Y-94614684D01*
X154995100Y-94599963D01*
X154995100Y-93381639D01*
X154995100Y-93381638D01*
X154990725Y-93365310D01*
X154986500Y-93333217D01*
X154986500Y-88364633D01*
X155006185Y-88297594D01*
X155022819Y-88276952D01*
X157514541Y-85785230D01*
X160057260Y-83242511D01*
X160096821Y-83173989D01*
X160117300Y-83097562D01*
X160117300Y-77735238D01*
X160096822Y-77658812D01*
X160057260Y-77590289D01*
X159391711Y-76924740D01*
X159391709Y-76924739D01*
X159391704Y-76924735D01*
X159341610Y-76895813D01*
X159341610Y-76895814D01*
X159330975Y-76889674D01*
X159323189Y-76885179D01*
X159246762Y-76864700D01*
X159246760Y-76864700D01*
X158649876Y-76864700D01*
X158582837Y-76845015D01*
X158562195Y-76828381D01*
X158498516Y-76764702D01*
X158498514Y-76764700D01*
X158441450Y-76731754D01*
X158384387Y-76698808D01*
X158320739Y-76681754D01*
X158257092Y-76664700D01*
X158125308Y-76664700D01*
X157998012Y-76698808D01*
X157883886Y-76764700D01*
X157883883Y-76764702D01*
X157790702Y-76857883D01*
X157790700Y-76857886D01*
X157724808Y-76972012D01*
X157690700Y-77099308D01*
X157690700Y-77231092D01*
X157704391Y-77282187D01*
X157724808Y-77358387D01*
X157754137Y-77409185D01*
X157790700Y-77472514D01*
X157883886Y-77565700D01*
X157998014Y-77631592D01*
X158125308Y-77665700D01*
X158125310Y-77665700D01*
X158257090Y-77665700D01*
X158257092Y-77665700D01*
X158384386Y-77631592D01*
X158498514Y-77565700D01*
X158562195Y-77502019D01*
X158623518Y-77468534D01*
X158649876Y-77465700D01*
X159031367Y-77465700D01*
X159098406Y-77485385D01*
X159119048Y-77502019D01*
X159479981Y-77862952D01*
X159513466Y-77924275D01*
X159516300Y-77950633D01*
X159516300Y-82882167D01*
X159496615Y-82949206D01*
X159479981Y-82969848D01*
X154445541Y-88004287D01*
X154445535Y-88004295D01*
X154405982Y-88072804D01*
X154405979Y-88072809D01*
X154385500Y-88149239D01*
X154385500Y-93452162D01*
X154389874Y-93468484D01*
X154394100Y-93500580D01*
X154394100Y-104734974D01*
X154374415Y-104802013D01*
X154321611Y-104847768D01*
X154268019Y-104855799D01*
X154268019Y-104858700D01*
X154128108Y-104858700D01*
X154000812Y-104892808D01*
X153886686Y-104958700D01*
X153793498Y-105051887D01*
X153781790Y-105072166D01*
X153740523Y-105113434D01*
X153740797Y-105113790D01*
X153738092Y-105115865D01*
X153736412Y-105117546D01*
X153734352Y-105118735D01*
X153734344Y-105118741D01*
X150025941Y-108827144D01*
X150025935Y-108827152D01*
X149986382Y-108895661D01*
X149986379Y-108895666D01*
X149976678Y-108931872D01*
X149965900Y-108972095D01*
X149532643Y-108972095D01*
X149550900Y-108903962D01*
X149550900Y-106945238D01*
X149530421Y-106868811D01*
X149530417Y-106868804D01*
X149490864Y-106800295D01*
X149490858Y-106800287D01*
X146437619Y-103747048D01*
X146404134Y-103685725D01*
X146401300Y-103659367D01*
X146401300Y-100915676D01*
X146420985Y-100848637D01*
X146437619Y-100827995D01*
X146454288Y-100811326D01*
X146501300Y-100764314D01*
X146567192Y-100650186D01*
X146601300Y-100522892D01*
X146601300Y-100391108D01*
X146567192Y-100263814D01*
X146501300Y-100149686D01*
X146408114Y-100056500D01*
X146351050Y-100023554D01*
X146293987Y-99990608D01*
X146230339Y-99973554D01*
X146166692Y-99956500D01*
X146034908Y-99956500D01*
X145907612Y-99990608D01*
X145793486Y-100056500D01*
X145793483Y-100056502D01*
X145700302Y-100149683D01*
X145700300Y-100149686D01*
X145634408Y-100263812D01*
X145600300Y-100391108D01*
X143569063Y-100391108D01*
X143664871Y-100295300D01*
X144003671Y-99956500D01*
X144459460Y-99500711D01*
X144499021Y-99432189D01*
X144519500Y-99355762D01*
X144519500Y-97254633D01*
X144539185Y-97187594D01*
X144555819Y-97166952D01*
X151613469Y-90109302D01*
X158685660Y-83037111D01*
X158696441Y-83018438D01*
X158725221Y-82968589D01*
X158745700Y-82892162D01*
X158745700Y-80113076D01*
X158765385Y-80046037D01*
X158782019Y-80025395D01*
X158845700Y-79961714D01*
X158911592Y-79847586D01*
X158945700Y-79720292D01*
X158945700Y-79588508D01*
X158911592Y-79461214D01*
X158845700Y-79347086D01*
X158752514Y-79253900D01*
X158695450Y-79220954D01*
X158638387Y-79188008D01*
X158574739Y-79170954D01*
X158511092Y-79153900D01*
X158379308Y-79153900D01*
X158252012Y-79188008D01*
X158137886Y-79253900D01*
X158137883Y-79253902D01*
X158044702Y-79347083D01*
X158044700Y-79347086D01*
X157978808Y-79461212D01*
X157944700Y-79588508D01*
X157944700Y-79720291D01*
X157978808Y-79847587D01*
X158011754Y-79904650D01*
X158044700Y-79961714D01*
X158044702Y-79961716D01*
X158108381Y-80025395D01*
X158141866Y-80086718D01*
X158144700Y-80113076D01*
X158144700Y-82676767D01*
X158125015Y-82743806D01*
X158108381Y-82764448D01*
X143978541Y-96894287D01*
X143978535Y-96894295D01*
X143938982Y-96962804D01*
X143938979Y-96962809D01*
X143918500Y-97039239D01*
X143918500Y-99140367D01*
X143898815Y-99207406D01*
X143882181Y-99228048D01*
X139611941Y-103498287D01*
X139611935Y-103498295D01*
X139572382Y-103566804D01*
X139572379Y-103566809D01*
X139558726Y-103617762D01*
X139551900Y-103643238D01*
X139136900Y-103643238D01*
X139136900Y-102537833D01*
X139156585Y-102470794D01*
X139173219Y-102450152D01*
X140859058Y-100764313D01*
X142709060Y-98914311D01*
X142748622Y-98845788D01*
X142769100Y-98769362D01*
X142769100Y-98690238D01*
X142769100Y-97113976D01*
X142788785Y-97046937D01*
X142805419Y-97026295D01*
X148487414Y-91344300D01*
X154221620Y-85610094D01*
X154261181Y-85541572D01*
X154281660Y-85465145D01*
X154281660Y-84684676D01*
X154301345Y-84617637D01*
X154317979Y-84596995D01*
X154381660Y-84533314D01*
X154447552Y-84419186D01*
X154481660Y-84291892D01*
X154481660Y-84160108D01*
X154447552Y-84032814D01*
X154381660Y-83918686D01*
X154288474Y-83825500D01*
X154231410Y-83792554D01*
X154174347Y-83759608D01*
X154110699Y-83742554D01*
X154047052Y-83725500D01*
X153915268Y-83725500D01*
X153787972Y-83759608D01*
X153673846Y-83825500D01*
X153673843Y-83825502D01*
X153580662Y-83918683D01*
X153580660Y-83918686D01*
X153514768Y-84032812D01*
X153480660Y-84160108D01*
X153480660Y-84291891D01*
X153514768Y-84419187D01*
X153547714Y-84476250D01*
X153580660Y-84533314D01*
X153580662Y-84533316D01*
X153644341Y-84596995D01*
X153677826Y-84658318D01*
X153680660Y-84684676D01*
X153680660Y-85249749D01*
X153660975Y-85316788D01*
X153644341Y-85337430D01*
X149965781Y-89015990D01*
X149904458Y-89049475D01*
X149834766Y-89044491D01*
X149778833Y-89002619D01*
X149754416Y-88937155D01*
X149754100Y-88928309D01*
X149754100Y-88007061D01*
X149754720Y-87994679D01*
X149755667Y-87985233D01*
X149759396Y-87970804D01*
X149762339Y-87918751D01*
X149762608Y-87916079D01*
X149762984Y-87915151D01*
X149764345Y-87904401D01*
X149765582Y-87898147D01*
X149774105Y-87871416D01*
X149792696Y-87830011D01*
X149801799Y-87813299D01*
X149813889Y-87794675D01*
X149816135Y-87791136D01*
X149816390Y-87790725D01*
X149818616Y-87787052D01*
X149876185Y-87689783D01*
X149883731Y-87675832D01*
X149884528Y-87674212D01*
X149890981Y-87659705D01*
X149916624Y-87595489D01*
X149921064Y-87583261D01*
X149921524Y-87581857D01*
X149925168Y-87569423D01*
X149943668Y-87498029D01*
X149944970Y-87492713D01*
X149945112Y-87492098D01*
X149945412Y-87474316D01*
X149954100Y-87441892D01*
X149954100Y-87310108D01*
X149943015Y-87268738D01*
X149940691Y-87245342D01*
X149897482Y-87103311D01*
X149891361Y-87086006D01*
X149890576Y-87084067D01*
X149882901Y-87067312D01*
X149872916Y-87047867D01*
X149840842Y-86985404D01*
X149838755Y-86981141D01*
X149824604Y-86950775D01*
X149803473Y-86905433D01*
X149794731Y-86879546D01*
X149794090Y-86876618D01*
X149791367Y-86864161D01*
X149788734Y-86845206D01*
X149784789Y-86780286D01*
X149783109Y-86773474D01*
X149779500Y-86743776D01*
X149779500Y-80224440D01*
X149779500Y-80224438D01*
X149759022Y-80148012D01*
X149719460Y-80079489D01*
X143948511Y-74308540D01*
X143948510Y-74308539D01*
X143948507Y-74308537D01*
X143939065Y-74303086D01*
X143939064Y-74303086D01*
X143879991Y-74268980D01*
X143879990Y-74268979D01*
X143854513Y-74262152D01*
X143803562Y-74248500D01*
X143803560Y-74248500D01*
X136521065Y-74248500D01*
X136508679Y-74247880D01*
X136499233Y-74246931D01*
X136484803Y-74243203D01*
X136432762Y-74240258D01*
X136430076Y-74239989D01*
X136429150Y-74239613D01*
X136418419Y-74238255D01*
X136412153Y-74237017D01*
X136385413Y-74228492D01*
X136344015Y-74209904D01*
X136327301Y-74200798D01*
X136308643Y-74188689D01*
X136304903Y-74186318D01*
X136304534Y-74186090D01*
X136301083Y-74184002D01*
X136301052Y-74183983D01*
X136203783Y-74126414D01*
X136203780Y-74126412D01*
X136203771Y-74126407D01*
X136189839Y-74118871D01*
X136188212Y-74118071D01*
X136173720Y-74111624D01*
X136173717Y-74111622D01*
X136173704Y-74111617D01*
X136135250Y-74096261D01*
X136109461Y-74085963D01*
X136097246Y-74081530D01*
X136097241Y-74081528D01*
X136097229Y-74081524D01*
X136095852Y-74081073D01*
X136095854Y-74081073D01*
X136095837Y-74081068D01*
X136083451Y-74077439D01*
X136011950Y-74058911D01*
X136006771Y-74057642D01*
X136006334Y-74057541D01*
X136006124Y-74057493D01*
X136006122Y-74057492D01*
X136006116Y-74057492D01*
X136003578Y-74057449D01*
X135973593Y-74053242D01*
X135955897Y-74048500D01*
X135955892Y-74048500D01*
X135824108Y-74048500D01*
X135696812Y-74082608D01*
X135582686Y-74148500D01*
X135582683Y-74148502D01*
X135489502Y-74241683D01*
X135489500Y-74241686D01*
X135423608Y-74355812D01*
X135389500Y-74483108D01*
X127181500Y-74483108D01*
X127181500Y-63078711D01*
X129830500Y-63078711D01*
X129830500Y-63321288D01*
X129862161Y-63561785D01*
X129924947Y-63796104D01*
X130017773Y-64020205D01*
X130017776Y-64020212D01*
X130139064Y-64230289D01*
X130139066Y-64230292D01*
X130139067Y-64230293D01*
X130286733Y-64422736D01*
X130286739Y-64422743D01*
X130458256Y-64594260D01*
X130458262Y-64594265D01*
X130650711Y-64741936D01*
X130860788Y-64863224D01*
X131084900Y-64956054D01*
X131319211Y-65018838D01*
X131499586Y-65042584D01*
X131559711Y-65050500D01*
X131559712Y-65050500D01*
X131802289Y-65050500D01*
X131850388Y-65044167D01*
X132042789Y-65018838D01*
X132277100Y-64956054D01*
X132501212Y-64863224D01*
X132711289Y-64741936D01*
X132903738Y-64594265D01*
X133075265Y-64422738D01*
X133222936Y-64230289D01*
X133344224Y-64020212D01*
X133437054Y-63796100D01*
X133499838Y-63561789D01*
X133531500Y-63321288D01*
X133531500Y-63078712D01*
X133531500Y-63078711D01*
X159349500Y-63078711D01*
X159349500Y-63321288D01*
X159381161Y-63561785D01*
X159443947Y-63796104D01*
X159536773Y-64020205D01*
X159536776Y-64020212D01*
X159658064Y-64230289D01*
X159658066Y-64230292D01*
X159658067Y-64230293D01*
X159805733Y-64422736D01*
X159805739Y-64422743D01*
X159977256Y-64594260D01*
X159977262Y-64594265D01*
X160169711Y-64741936D01*
X160379788Y-64863224D01*
X160603900Y-64956054D01*
X160838211Y-65018838D01*
X161018586Y-65042584D01*
X161078711Y-65050500D01*
X161078712Y-65050500D01*
X161321289Y-65050500D01*
X161369388Y-65044167D01*
X161561789Y-65018838D01*
X161796100Y-64956054D01*
X162020212Y-64863224D01*
X162230289Y-64741936D01*
X162422738Y-64594265D01*
X162594265Y-64422738D01*
X162741936Y-64230289D01*
X162863224Y-64020212D01*
X162956054Y-63796100D01*
X163018838Y-63561789D01*
X163050500Y-63321288D01*
X163050500Y-63078712D01*
X163018838Y-62838211D01*
X162956054Y-62603900D01*
X162863224Y-62379788D01*
X162741936Y-62169711D01*
X162594265Y-61977262D01*
X162594260Y-61977256D01*
X162422743Y-61805739D01*
X162422736Y-61805733D01*
X162230293Y-61658067D01*
X162230292Y-61658066D01*
X162230289Y-61658064D01*
X162020212Y-61536776D01*
X162020205Y-61536773D01*
X161796104Y-61443947D01*
X161561785Y-61381161D01*
X161321289Y-61349500D01*
X161321288Y-61349500D01*
X161078712Y-61349500D01*
X161078711Y-61349500D01*
X160838214Y-61381161D01*
X160603895Y-61443947D01*
X160379794Y-61536773D01*
X160379785Y-61536777D01*
X160169706Y-61658067D01*
X159977263Y-61805733D01*
X159977256Y-61805739D01*
X159805739Y-61977256D01*
X159805733Y-61977263D01*
X159658067Y-62169706D01*
X159536777Y-62379785D01*
X159536773Y-62379794D01*
X159443947Y-62603895D01*
X159381161Y-62838214D01*
X159349500Y-63078711D01*
X133531500Y-63078711D01*
X133499838Y-62838211D01*
X133437054Y-62603900D01*
X133344224Y-62379788D01*
X133222936Y-62169711D01*
X133075265Y-61977262D01*
X133075260Y-61977256D01*
X132903743Y-61805739D01*
X132903736Y-61805733D01*
X132711293Y-61658067D01*
X132711292Y-61658066D01*
X132711289Y-61658064D01*
X132501212Y-61536776D01*
X132501205Y-61536773D01*
X132277104Y-61443947D01*
X132042785Y-61381161D01*
X131802289Y-61349500D01*
X131802288Y-61349500D01*
X131559712Y-61349500D01*
X131559711Y-61349500D01*
X131319214Y-61381161D01*
X131084895Y-61443947D01*
X130860794Y-61536773D01*
X130860785Y-61536777D01*
X130650706Y-61658067D01*
X130458263Y-61805733D01*
X130458256Y-61805739D01*
X130286739Y-61977256D01*
X130286733Y-61977263D01*
X130139067Y-62169706D01*
X130017777Y-62379785D01*
X130017773Y-62379794D01*
X129924947Y-62603895D01*
X129862161Y-62838214D01*
X129830500Y-63078711D01*
X127181500Y-63078711D01*
X127181500Y-58802500D01*
X127201185Y-58735461D01*
X127253989Y-58689706D01*
X127305500Y-58678500D01*
X165556500Y-58678500D01*
X165623539Y-58698185D01*
G37*
%TD.AperFunction*%
%TD*%
%TA.AperFunction,Conductor*%
%TO.N,/SDA*%
G36*
X149735732Y-87432078D02*
G01*
X149743161Y-87437078D01*
X149744880Y-87445866D01*
X149744738Y-87446481D01*
X149726238Y-87517875D01*
X149725778Y-87519279D01*
X149700135Y-87583495D01*
X149699338Y-87585115D01*
X149641769Y-87682384D01*
X149641514Y-87682795D01*
X149615620Y-87722690D01*
X149571263Y-87821480D01*
X149571262Y-87821481D01*
X149558308Y-87887005D01*
X149558308Y-87887010D01*
X149554224Y-87959197D01*
X149550336Y-87967263D01*
X149542543Y-87970236D01*
X149364494Y-87970236D01*
X149356221Y-87966809D01*
X149352824Y-87959369D01*
X149346400Y-87869426D01*
X149346400Y-87869425D01*
X149327064Y-87794223D01*
X149298983Y-87735116D01*
X149298982Y-87735115D01*
X149298981Y-87735112D01*
X149265677Y-87682787D01*
X149265452Y-87682420D01*
X149205484Y-87580068D01*
X149204679Y-87578404D01*
X149180360Y-87516047D01*
X149179934Y-87514727D01*
X149162424Y-87446457D01*
X149163688Y-87437594D01*
X149170850Y-87432219D01*
X149171418Y-87432088D01*
X149451282Y-87375469D01*
X149455918Y-87375469D01*
X149735732Y-87432078D01*
G37*
%TD.AperFunction*%
%TD*%
%TA.AperFunction,Conductor*%
%TO.N,/SDA*%
G36*
X135960459Y-74257856D02*
G01*
X136031889Y-74276365D01*
X136033266Y-74276816D01*
X136097495Y-74302464D01*
X136099115Y-74303261D01*
X136196384Y-74360830D01*
X136196793Y-74361083D01*
X136236690Y-74386978D01*
X136236694Y-74386980D01*
X136236693Y-74386980D01*
X136335481Y-74431336D01*
X136335482Y-74431337D01*
X136335485Y-74431337D01*
X136335486Y-74431338D01*
X136401011Y-74444292D01*
X136473198Y-74448375D01*
X136481263Y-74452263D01*
X136484236Y-74460056D01*
X136484236Y-74638106D01*
X136480809Y-74646379D01*
X136473369Y-74649776D01*
X136383426Y-74656199D01*
X136308228Y-74675534D01*
X136308226Y-74675534D01*
X136249112Y-74703618D01*
X136196787Y-74736922D01*
X136196420Y-74737147D01*
X136094069Y-74797114D01*
X136092405Y-74797919D01*
X136030060Y-74822235D01*
X136028716Y-74822668D01*
X135960459Y-74840175D01*
X135951594Y-74838911D01*
X135946219Y-74831749D01*
X135946084Y-74831162D01*
X135939359Y-74797919D01*
X135889469Y-74551318D01*
X135889469Y-74546680D01*
X135909357Y-74448375D01*
X135946078Y-74266866D01*
X135951078Y-74259438D01*
X135959866Y-74257719D01*
X135960459Y-74257856D01*
G37*
%TD.AperFunction*%
%TD*%
%TA.AperFunction,Conductor*%
%TO.N,/SCL*%
G36*
X145766263Y-86785191D02*
G01*
X145769668Y-86792754D01*
X145775161Y-86883123D01*
X145775163Y-86883141D01*
X145791777Y-86959126D01*
X145845158Y-87073673D01*
X145890094Y-87161183D01*
X145890879Y-87163122D01*
X145934088Y-87305153D01*
X145933218Y-87314065D01*
X145926300Y-87319751D01*
X145925215Y-87320026D01*
X145645920Y-87376530D01*
X145641280Y-87376530D01*
X145361983Y-87320026D01*
X145361596Y-87319947D01*
X145354168Y-87314948D01*
X145352449Y-87306160D01*
X145352616Y-87305451D01*
X145372487Y-87232008D01*
X145373065Y-87230370D01*
X145401655Y-87165490D01*
X145402689Y-87163630D01*
X145468885Y-87066527D01*
X145469071Y-87066265D01*
X145506344Y-87016029D01*
X145551229Y-86922567D01*
X145564279Y-86860183D01*
X145568338Y-86792761D01*
X145572256Y-86784709D01*
X145580017Y-86781764D01*
X145757990Y-86781764D01*
X145766263Y-86785191D01*
G37*
%TD.AperFunction*%
%TD*%
%TA.AperFunction,Conductor*%
%TO.N,/SCL*%
G36*
X135960459Y-76797856D02*
G01*
X136031889Y-76816365D01*
X136033266Y-76816816D01*
X136097495Y-76842464D01*
X136099115Y-76843261D01*
X136196384Y-76900830D01*
X136196793Y-76901083D01*
X136236690Y-76926978D01*
X136236694Y-76926980D01*
X136236693Y-76926980D01*
X136335481Y-76971336D01*
X136335482Y-76971337D01*
X136335485Y-76971337D01*
X136335486Y-76971338D01*
X136401011Y-76984292D01*
X136473198Y-76988375D01*
X136481263Y-76992263D01*
X136484236Y-77000056D01*
X136484236Y-77178106D01*
X136480809Y-77186379D01*
X136473369Y-77189776D01*
X136383426Y-77196199D01*
X136308228Y-77215534D01*
X136308226Y-77215534D01*
X136249112Y-77243618D01*
X136196787Y-77276922D01*
X136196420Y-77277147D01*
X136094069Y-77337114D01*
X136092405Y-77337919D01*
X136030060Y-77362235D01*
X136028716Y-77362668D01*
X135960459Y-77380175D01*
X135951594Y-77378911D01*
X135946219Y-77371749D01*
X135946084Y-77371162D01*
X135939359Y-77337919D01*
X135889469Y-77091318D01*
X135889469Y-77086680D01*
X135909357Y-76988375D01*
X135946078Y-76806866D01*
X135951078Y-76799438D01*
X135959866Y-76797719D01*
X135960459Y-76797856D01*
G37*
%TD.AperFunction*%
%TD*%
%TA.AperFunction,Conductor*%
%TO.N,/SDA*%
G36*
X149576263Y-86785191D02*
G01*
X149579668Y-86792754D01*
X149585161Y-86883123D01*
X149585163Y-86883141D01*
X149601777Y-86959126D01*
X149655158Y-87073673D01*
X149700094Y-87161183D01*
X149700879Y-87163122D01*
X149744088Y-87305153D01*
X149743218Y-87314065D01*
X149736300Y-87319751D01*
X149735215Y-87320026D01*
X149455920Y-87376530D01*
X149451280Y-87376530D01*
X149171983Y-87320026D01*
X149171596Y-87319947D01*
X149164168Y-87314948D01*
X149162449Y-87306160D01*
X149162616Y-87305451D01*
X149182487Y-87232008D01*
X149183065Y-87230370D01*
X149211655Y-87165490D01*
X149212689Y-87163630D01*
X149278885Y-87066527D01*
X149279071Y-87066265D01*
X149316344Y-87016029D01*
X149361229Y-86922567D01*
X149374279Y-86860183D01*
X149378338Y-86792761D01*
X149382256Y-86784709D01*
X149390017Y-86781764D01*
X149567990Y-86781764D01*
X149576263Y-86785191D01*
G37*
%TD.AperFunction*%
%TD*%
%TA.AperFunction,Conductor*%
%TO.N,/SCL*%
G36*
X145647598Y-87377688D02*
G01*
X145647651Y-87377723D01*
X145882823Y-87535802D01*
X145887776Y-87543260D01*
X145886005Y-87552038D01*
X145885660Y-87552525D01*
X145798792Y-87668509D01*
X145798628Y-87668722D01*
X145759861Y-87718079D01*
X145712589Y-87806718D01*
X145712588Y-87806722D01*
X145697774Y-87876008D01*
X145693385Y-87959153D01*
X145689526Y-87967234D01*
X145681701Y-87970236D01*
X145503932Y-87970236D01*
X145495659Y-87966809D01*
X145492246Y-87959118D01*
X145487677Y-87867372D01*
X145473767Y-87790109D01*
X145428349Y-87671851D01*
X145399082Y-87605260D01*
X145398564Y-87603833D01*
X145352912Y-87446736D01*
X145353894Y-87437837D01*
X145360882Y-87432238D01*
X145361813Y-87432008D01*
X145638810Y-87375969D01*
X145647598Y-87377688D01*
G37*
%TD.AperFunction*%
%TD*%
M02*
