%TF.GenerationSoftware,KiCad,Pcbnew,9.0.2*%
%TF.CreationDate,2025-06-10T20:07:43+02:00*%
%TF.ProjectId,PEH Sensor,50454820-5365-46e7-936f-722e6b696361,rev?*%
%TF.SameCoordinates,Original*%
%TF.FileFunction,Paste,Top*%
%TF.FilePolarity,Positive*%
%FSLAX46Y46*%
G04 Gerber Fmt 4.6, Leading zero omitted, Abs format (unit mm)*
G04 Created by KiCad (PCBNEW 9.0.2) date 2025-06-10 20:07:43*
%MOMM*%
%LPD*%
G01*
G04 APERTURE LIST*
G04 Aperture macros list*
%AMRoundRect*
0 Rectangle with rounded corners*
0 $1 Rounding radius*
0 $2 $3 $4 $5 $6 $7 $8 $9 X,Y pos of 4 corners*
0 Add a 4 corners polygon primitive as box body*
4,1,4,$2,$3,$4,$5,$6,$7,$8,$9,$2,$3,0*
0 Add four circle primitives for the rounded corners*
1,1,$1+$1,$2,$3*
1,1,$1+$1,$4,$5*
1,1,$1+$1,$6,$7*
1,1,$1+$1,$8,$9*
0 Add four rect primitives between the rounded corners*
20,1,$1+$1,$2,$3,$4,$5,0*
20,1,$1+$1,$4,$5,$6,$7,0*
20,1,$1+$1,$6,$7,$8,$9,0*
20,1,$1+$1,$8,$9,$2,$3,0*%
%AMFreePoly0*
4,1,11,1.015000,1.170000,0.435000,0.575000,0.435000,-0.575000,1.015000,-1.170000,1.015000,-1.945000,0.125000,-1.945000,-0.435000,-1.395000,-0.435000,1.395000,0.125000,1.945000,1.015000,1.945000,1.015000,1.170000,1.015000,1.170000,$1*%
%AMFreePoly1*
4,1,11,0.435000,1.395000,0.435000,-1.395000,-0.125000,-1.945000,-1.015000,-1.945000,-1.015000,-1.170000,-0.435000,-0.575000,-0.435000,0.575000,-1.015000,1.170000,-1.015000,1.945000,-0.125000,1.945000,0.435000,1.395000,0.435000,1.395000,$1*%
G04 Aperture macros list end*
%ADD10RoundRect,0.250000X0.350000X0.450000X-0.350000X0.450000X-0.350000X-0.450000X0.350000X-0.450000X0*%
%ADD11RoundRect,0.112500X-0.112500X-0.237500X0.112500X-0.237500X0.112500X0.237500X-0.112500X0.237500X0*%
%ADD12RoundRect,0.250000X0.600000X-0.400000X0.600000X0.400000X-0.600000X0.400000X-0.600000X-0.400000X0*%
%ADD13RoundRect,0.087500X-0.087500X0.187500X-0.087500X-0.187500X0.087500X-0.187500X0.087500X0.187500X0*%
%ADD14RoundRect,0.125000X-0.575000X0.125000X-0.575000X-0.125000X0.575000X-0.125000X0.575000X0.125000X0*%
%ADD15RoundRect,0.087500X0.087500X-0.187500X0.087500X0.187500X-0.087500X0.187500X-0.087500X-0.187500X0*%
%ADD16RoundRect,0.250000X-0.475000X0.337500X-0.475000X-0.337500X0.475000X-0.337500X0.475000X0.337500X0*%
%ADD17RoundRect,0.250000X-0.337500X-0.475000X0.337500X-0.475000X0.337500X0.475000X-0.337500X0.475000X0*%
%ADD18RoundRect,0.250000X0.450000X-0.350000X0.450000X0.350000X-0.450000X0.350000X-0.450000X-0.350000X0*%
%ADD19FreePoly0,0.000000*%
%ADD20FreePoly1,0.000000*%
%ADD21RoundRect,0.250000X-0.450000X0.350000X-0.450000X-0.350000X0.450000X-0.350000X0.450000X0.350000X0*%
%ADD22R,0.700000X1.400000*%
%ADD23RoundRect,0.250000X0.337500X0.475000X-0.337500X0.475000X-0.337500X-0.475000X0.337500X-0.475000X0*%
%ADD24RoundRect,0.250001X-0.462499X-0.849999X0.462499X-0.849999X0.462499X0.849999X-0.462499X0.849999X0*%
%ADD25RoundRect,0.202500X-0.202500X-0.202500X0.202500X-0.202500X0.202500X0.202500X-0.202500X0.202500X0*%
%ADD26RoundRect,0.062500X-0.375000X-0.062500X0.375000X-0.062500X0.375000X0.062500X-0.375000X0.062500X0*%
%ADD27RoundRect,0.062500X-0.062500X-0.375000X0.062500X-0.375000X0.062500X0.375000X-0.062500X0.375000X0*%
%ADD28R,1.200000X1.950000*%
%ADD29RoundRect,0.231000X-1.039000X-0.539000X1.039000X-0.539000X1.039000X0.539000X-1.039000X0.539000X0*%
%ADD30C,1.270000*%
%ADD31R,1.900000X1.900000*%
%ADD32RoundRect,0.250000X-0.350000X-0.450000X0.350000X-0.450000X0.350000X0.450000X-0.350000X0.450000X0*%
%ADD33RoundRect,0.250000X0.475000X-0.337500X0.475000X0.337500X-0.475000X0.337500X-0.475000X-0.337500X0*%
%ADD34RoundRect,0.150000X-0.587500X-0.150000X0.587500X-0.150000X0.587500X0.150000X-0.587500X0.150000X0*%
%ADD35RoundRect,0.075000X-0.650000X-0.075000X0.650000X-0.075000X0.650000X0.075000X-0.650000X0.075000X0*%
G04 APERTURE END LIST*
D10*
%TO.C,R10*%
X156222500Y-111453500D03*
X154222500Y-111453500D03*
%TD*%
D11*
%TO.C,D2*%
X138078500Y-112183500D03*
X139378500Y-112183500D03*
X138728500Y-110183500D03*
%TD*%
D12*
%TO.C,D3*%
X141014500Y-107869500D03*
X141014500Y-104369500D03*
%TD*%
D11*
%TO.C,D1*%
X138078500Y-116247500D03*
X139378500Y-116247500D03*
X138728500Y-114247500D03*
%TD*%
D13*
%TO.C,U1*%
X158615000Y-88129000D03*
X157615000Y-88129000D03*
D14*
X158115000Y-89154000D03*
D15*
X158615000Y-90179000D03*
X157615000Y-90179000D03*
%TD*%
D10*
%TO.C,R13*%
X134477000Y-74549000D03*
X132477000Y-74549000D03*
%TD*%
D16*
%TO.C,C1*%
X144062500Y-109908000D03*
X144062500Y-111983000D03*
%TD*%
D17*
%TO.C,C2*%
X148591500Y-105103500D03*
X150666500Y-105103500D03*
%TD*%
D18*
%TO.C,R4*%
X151174500Y-119057500D03*
X151174500Y-117057500D03*
%TD*%
D19*
%TO.C,L1*%
X143059500Y-106627500D03*
D20*
X146589500Y-106627500D03*
%TD*%
D21*
%TO.C,R8*%
X155746500Y-117057500D03*
X155746500Y-119057500D03*
%TD*%
D10*
%TO.C,R11*%
X157718000Y-99298000D03*
X155718000Y-99298000D03*
%TD*%
D21*
%TO.C,R9*%
X146602500Y-117057500D03*
X146602500Y-119057500D03*
%TD*%
D18*
%TO.C,R2*%
X141776500Y-116771500D03*
X141776500Y-114771500D03*
%TD*%
D10*
%TO.C,R3*%
X141506500Y-100457000D03*
X139506500Y-100457000D03*
%TD*%
D22*
%TO.C,U3*%
X145643600Y-88709240D03*
X146913600Y-88709240D03*
X148183600Y-88709240D03*
X149453600Y-88709240D03*
%TD*%
D23*
%TO.C,C5*%
X155281500Y-108151500D03*
X153206500Y-108151500D03*
%TD*%
D17*
%TO.C,C4*%
X148591500Y-107643500D03*
X150666500Y-107643500D03*
%TD*%
D16*
%TO.C,C3*%
X144062500Y-114734000D03*
X144062500Y-116809000D03*
%TD*%
D24*
%TO.C,L2*%
X153081500Y-105357500D03*
X155406500Y-105357500D03*
%TD*%
D10*
%TO.C,R12*%
X134477000Y-77089000D03*
X132477000Y-77089000D03*
%TD*%
D25*
%TO.C,U2*%
X148733000Y-111731500D03*
X148733000Y-112731500D03*
X149733000Y-111731500D03*
X149733000Y-112731500D03*
D26*
X147545500Y-111231500D03*
X147545500Y-111731500D03*
X147545500Y-112231500D03*
X147545500Y-112731500D03*
X147545500Y-113231500D03*
D27*
X148233000Y-113919000D03*
X148733000Y-113919000D03*
X149233000Y-113919000D03*
X149733000Y-113919000D03*
X150233000Y-113919000D03*
D26*
X150920500Y-113231500D03*
X150920500Y-112731500D03*
X150920500Y-112231500D03*
X150920500Y-111731500D03*
X150920500Y-111231500D03*
D27*
X150233000Y-110544000D03*
X149733000Y-110544000D03*
X149233000Y-110544000D03*
X148733000Y-110544000D03*
X148233000Y-110544000D03*
%TD*%
D28*
%TO.C,S1*%
X151115400Y-96473000D03*
X148615400Y-96473000D03*
X146115400Y-96473000D03*
X151115400Y-102123000D03*
X148615400Y-102123000D03*
X146115400Y-102123000D03*
%TD*%
D29*
%TO.C,U5*%
X137668000Y-61849000D03*
X137668000Y-64389000D03*
X137668000Y-66929000D03*
X137668000Y-69469000D03*
X137668000Y-72009000D03*
X137668000Y-74549000D03*
X137668000Y-77089000D03*
X137668000Y-79629000D03*
X137668000Y-82169000D03*
X155448000Y-82169000D03*
X155448000Y-79629000D03*
X155448000Y-77089000D03*
X155448000Y-74549000D03*
X155448000Y-72009000D03*
X155448000Y-69469000D03*
X155448000Y-66929000D03*
X155448000Y-64389000D03*
X155448000Y-61849000D03*
D30*
X151384000Y-80137000D03*
X151384000Y-78359000D03*
X151384000Y-76581000D03*
X151384000Y-74803000D03*
X151384000Y-73152000D03*
X151384000Y-71374000D03*
X151384000Y-69596000D03*
X151384000Y-67818000D03*
X148717000Y-73152000D03*
X148717000Y-71374000D03*
X148717000Y-69596000D03*
X148717000Y-67818000D03*
X140462000Y-80137000D03*
X140462000Y-78359000D03*
X140462000Y-76581000D03*
X140462000Y-74930000D03*
X140462000Y-73152000D03*
X140462000Y-71374000D03*
X140462000Y-69596000D03*
X140462000Y-67818000D03*
D31*
X147828000Y-61976000D03*
X144018000Y-61976000D03*
%TD*%
D18*
%TO.C,R1*%
X141776500Y-111945500D03*
X141776500Y-109945500D03*
%TD*%
D32*
%TO.C,R6*%
X154222500Y-114247500D03*
X156222500Y-114247500D03*
%TD*%
D18*
%TO.C,R7*%
X153460500Y-119057500D03*
X153460500Y-117057500D03*
%TD*%
D17*
%TO.C,C7*%
X146536500Y-85852000D03*
X148611500Y-85852000D03*
%TD*%
D16*
%TO.C,C6*%
X160782000Y-88243500D03*
X160782000Y-90318500D03*
%TD*%
D33*
%TO.C,C8*%
X153797000Y-94026900D03*
X153797000Y-91951900D03*
%TD*%
D18*
%TO.C,R5*%
X148888500Y-119057500D03*
X148888500Y-117057500D03*
%TD*%
D34*
%TO.C,Q1*%
X137952000Y-88077000D03*
X137952000Y-89977000D03*
X139827000Y-89027000D03*
%TD*%
D35*
%TO.C,U4*%
X145542000Y-92234000D03*
X145542000Y-92734000D03*
X145542000Y-93234000D03*
X145542000Y-93734000D03*
X145542000Y-94234000D03*
X149942000Y-94234000D03*
X149942000Y-93734000D03*
X149942000Y-93234000D03*
X149942000Y-92734000D03*
X149942000Y-92234000D03*
%TD*%
M02*
